# MagicaVoxel @ Ephtracy

# material
mtllib HealingThrone.mtl
usemtl palette

# normals
vn -1 0 0
vn 1 0 0
vn 0 0 1
vn 0 0 -1
vn 0 -1 0
vn 0 1 0

# texcoords
vt 0.939453 0.5
vt 0.978516 0.5
vt 0.986328 0.5
vt 0.990234 0.5
vt 0.994141 0.5

# verts
v -5 0 2
v -5 0 1
v -5 0 -0
v -5 0 -1
v -5 0 -2
v -5 1 2
v -5 1 1
v -5 1 -0
v -5 1 -1
v -5 1 -2
v -4 0 4
v -4 0 3
v -4 0 2
v -4 0 -2
v -4 0 -3
v -4 0 -4
v -4 1 4
v -4 1 3
v -4 1 2
v -4 1 1
v -4 1 -0
v -4 1 -1
v -4 1 -2
v -4 1 -3
v -4 1 -4
v -4 2 2
v -4 2 -2
v -3 1 3
v -3 1 2
v -3 1 -2
v -3 1 -3
v -3 2 3
v -3 2 2
v -3 2 -2
v -3 2 -3
v -2 0 5
v -2 0 4
v -2 0 -4
v -2 0 -5
v -2 1 5
v -2 1 4
v -2 1 3
v -2 1 -3
v -2 1 -4
v -2 1 -5
v -2 2 4
v -2 2 3
v -2 2 -3
v -2 2 -4
v 2 1 3
v 2 1 2
v 2 1 -2
v 2 1 -3
v 2 2 3
v 2 2 2
v 2 2 -2
v 2 2 -3
v 3 1 2
v 3 1 -2
v 3 2 2
v 3 2 -2
v -3 1 2
v -3 1 -2
v -3 2 2
v -3 2 -2
v -2 1 3
v -2 1 2
v -2 1 -2
v -2 1 -3
v -2 2 3
v -2 2 2
v -2 2 -2
v -2 2 -3
v 2 0 5
v 2 0 4
v 2 0 -4
v 2 0 -5
v 2 1 5
v 2 1 4
v 2 1 3
v 2 1 -3
v 2 1 -4
v 2 1 -5
v 2 2 4
v 2 2 3
v 2 2 -3
v 2 2 -4
v 3 1 3
v 3 1 2
v 3 1 -2
v 3 1 -3
v 3 2 3
v 3 2 2
v 3 2 -2
v 3 2 -3
v 4 0 4
v 4 0 3
v 4 0 2
v 4 0 -2
v 4 0 -3
v 4 0 -4
v 4 1 4
v 4 1 3
v 4 1 2
v 4 1 1
v 4 1 -0
v 4 1 -1
v 4 1 -2
v 4 1 -3
v 4 1 -4
v 4 2 2
v 4 2 -2
v 5 0 2
v 5 0 1
v 5 0 -0
v 5 0 -1
v 5 0 -2
v 5 1 2
v 5 1 1
v 5 1 -0
v 5 1 -1
v 5 1 -2
v -2 0 5
v -2 1 5
v -1 0 5
v -1 1 5
v 0 0 5
v 0 1 5
v 1 0 5
v 1 1 5
v 2 0 5
v 2 1 5
v -4 0 4
v -4 1 4
v -3 0 4
v -3 1 4
v -2 0 4
v -2 1 4
v -2 2 4
v -1 1 4
v 0 1 4
v 1 1 4
v 2 0 4
v 2 1 4
v 2 2 4
v 3 0 4
v 3 1 4
v 4 0 4
v 4 1 4
v -3 1 3
v -3 2 3
v -2 1 3
v -2 2 3
v 2 1 3
v 2 2 3
v 3 1 3
v 3 2 3
v -5 0 2
v -5 1 2
v -4 0 2
v -4 1 2
v -4 2 2
v -3 1 2
v -3 2 2
v 3 1 2
v 3 2 2
v 4 0 2
v 4 1 2
v 4 2 2
v 5 0 2
v 5 1 2
v -3 1 -2
v -3 2 -2
v -2 1 -2
v -2 2 -2
v 2 1 -2
v 2 2 -2
v 3 1 -2
v 3 2 -2
v -2 1 -3
v -2 2 -3
v 2 1 -3
v 2 2 -3
v -2 1 3
v -2 2 3
v 2 1 3
v 2 2 3
v -3 1 2
v -3 2 2
v -2 1 2
v -2 2 2
v 2 1 2
v 2 2 2
v 3 1 2
v 3 2 2
v -5 0 -2
v -5 1 -2
v -4 0 -2
v -4 1 -2
v -4 2 -2
v -3 1 -2
v -3 2 -2
v 3 1 -2
v 3 2 -2
v 4 0 -2
v 4 1 -2
v 4 2 -2
v 5 0 -2
v 5 1 -2
v -3 1 -3
v -3 2 -3
v -2 1 -3
v -2 2 -3
v 2 1 -3
v 2 2 -3
v 3 1 -3
v 3 2 -3
v -4 0 -4
v -4 1 -4
v -3 0 -4
v -3 1 -4
v -2 0 -4
v -2 1 -4
v -2 2 -4
v -1 1 -4
v 0 1 -4
v 1 1 -4
v 2 0 -4
v 2 1 -4
v 2 2 -4
v 3 0 -4
v 3 1 -4
v 4 0 -4
v 4 1 -4
v -2 0 -5
v -2 1 -5
v -1 0 -5
v -1 1 -5
v 0 0 -5
v 0 1 -5
v 1 0 -5
v 1 1 -5
v 2 0 -5
v 2 1 -5
v -2 0 5
v -1 0 5
v 0 0 5
v 1 0 5
v 2 0 5
v -4 0 4
v -3 0 4
v -2 0 4
v -1 0 4
v 0 0 4
v 1 0 4
v 2 0 4
v 3 0 4
v 4 0 4
v -4 0 3
v -3 0 3
v -2 0 3
v 2 0 3
v 3 0 3
v 4 0 3
v -5 0 2
v -4 0 2
v -3 0 2
v -2 0 2
v -1 0 2
v 1 0 2
v 2 0 2
v 3 0 2
v 4 0 2
v 5 0 2
v -5 0 1
v -4 0 1
v -2 0 1
v -1 0 1
v 1 0 1
v 2 0 1
v 4 0 1
v 5 0 1
v -5 0 -0
v -4 0 -0
v 4 0 -0
v 5 0 -0
v -5 0 -1
v -4 0 -1
v -2 0 -1
v -1 0 -1
v 1 0 -1
v 2 0 -1
v 4 0 -1
v 5 0 -1
v -5 0 -2
v -4 0 -2
v -3 0 -2
v -2 0 -2
v -1 0 -2
v 1 0 -2
v 2 0 -2
v 3 0 -2
v 4 0 -2
v 5 0 -2
v -4 0 -3
v -3 0 -3
v -2 0 -3
v 2 0 -3
v 3 0 -3
v 4 0 -3
v -4 0 -4
v -3 0 -4
v -2 0 -4
v -1 0 -4
v 0 0 -4
v 1 0 -4
v 2 0 -4
v 3 0 -4
v 4 0 -4
v -2 0 -5
v -1 0 -5
v 0 0 -5
v 1 0 -5
v 2 0 -5
v -2 1 5
v -1 1 5
v 0 1 5
v 1 1 5
v 2 1 5
v -4 1 4
v -3 1 4
v -2 1 4
v -1 1 4
v 0 1 4
v 1 1 4
v 2 1 4
v 3 1 4
v 4 1 4
v -4 1 3
v -3 1 3
v -2 1 3
v 2 1 3
v 3 1 3
v 4 1 3
v -5 1 2
v -4 1 2
v -3 1 2
v -2 1 2
v -1 1 2
v 1 1 2
v 2 1 2
v 3 1 2
v 4 1 2
v 5 1 2
v -5 1 1
v -4 1 1
v -2 1 1
v -1 1 1
v 1 1 1
v 2 1 1
v 4 1 1
v 5 1 1
v -5 1 -0
v -4 1 -0
v 4 1 -0
v 5 1 -0
v -5 1 -1
v -4 1 -1
v -2 1 -1
v -1 1 -1
v 1 1 -1
v 2 1 -1
v 4 1 -1
v 5 1 -1
v -5 1 -2
v -4 1 -2
v -3 1 -2
v -2 1 -2
v -1 1 -2
v 1 1 -2
v 2 1 -2
v 3 1 -2
v 4 1 -2
v 5 1 -2
v -4 1 -3
v -3 1 -3
v -2 1 -3
v 2 1 -3
v 3 1 -3
v 4 1 -3
v -4 1 -4
v -3 1 -4
v -2 1 -4
v -1 1 -4
v 0 1 -4
v 1 1 -4
v 2 1 -4
v 3 1 -4
v 4 1 -4
v -2 1 -5
v -1 1 -5
v 0 1 -5
v 1 1 -5
v 2 1 -5
v -2 2 4
v 2 2 4
v -3 2 3
v -2 2 3
v 2 2 3
v 3 2 3
v -4 2 2
v -3 2 2
v -2 2 2
v 2 2 2
v 3 2 2
v 4 2 2
v -4 2 -2
v -3 2 -2
v -2 2 -2
v 2 2 -2
v 3 2 -2
v 4 2 -2
v -3 2 -3
v -2 2 -3
v 2 2 -3
v 3 2 -3
v -2 2 -4
v 2 2 -4

# faces
f 6/1/1 2/1/1 1/1/1
f 7/3/1 3/3/1 2/3/1
f 7/1/1 2/1/1 6/1/1
f 8/1/1 4/1/1 3/1/1
f 8/3/1 3/3/1 7/3/1
f 9/3/1 5/3/1 4/3/1
f 9/1/1 4/1/1 8/1/1
f 10/3/1 5/3/1 9/3/1
f 17/1/1 12/1/1 11/1/1
f 18/3/1 13/3/1 12/3/1
f 18/1/1 12/1/1 17/1/1
f 19/3/1 13/3/1 18/3/1
f 23/1/1 15/1/1 14/1/1
f 24/3/1 16/3/1 15/3/1
f 24/1/1 15/1/1 23/1/1
f 25/3/1 16/3/1 24/3/1
f 26/4/1 23/4/1 22/4/1
f 26/4/1 22/4/1 21/4/1
f 26/4/1 21/4/1 20/4/1
f 26/4/1 20/4/1 19/4/1
f 27/4/1 23/4/1 26/4/1
f 32/4/1 29/4/1 28/4/1
f 33/4/1 29/4/1 32/4/1
f 34/4/1 31/4/1 30/4/1
f 35/4/1 31/4/1 34/4/1
f 40/1/1 37/1/1 36/1/1
f 41/1/1 37/1/1 40/1/1
f 44/3/1 39/3/1 38/3/1
f 45/3/1 39/3/1 44/3/1
f 46/4/1 42/4/1 41/4/1
f 47/4/1 42/4/1 46/4/1
f 48/4/1 44/4/1 43/4/1
f 49/4/1 44/4/1 48/4/1
f 54/4/1 51/4/1 50/4/1
f 55/4/1 51/4/1 54/4/1
f 56/4/1 53/4/1 52/4/1
f 57/4/1 53/4/1 56/4/1
f 60/4/1 59/4/1 58/4/1
f 61/4/1 59/4/1 60/4/1
f 62/4/2 63/4/2 64/4/2
f 64/4/2 63/4/2 65/4/2
f 66/4/2 67/4/2 70/4/2
f 70/4/2 67/4/2 71/4/2
f 68/4/2 69/4/2 72/4/2
f 72/4/2 69/4/2 73/4/2
f 74/3/2 75/3/2 78/3/2
f 78/3/2 75/3/2 79/3/2
f 76/1/2 77/1/2 82/1/2
f 82/1/2 77/1/2 83/1/2
f 79/4/2 80/4/2 84/4/2
f 84/4/2 80/4/2 85/4/2
f 81/4/2 82/4/2 86/4/2
f 86/4/2 82/4/2 87/4/2
f 88/4/2 89/4/2 92/4/2
f 92/4/2 89/4/2 93/4/2
f 90/4/2 91/4/2 94/4/2
f 94/4/2 91/4/2 95/4/2
f 96/3/2 97/3/2 102/3/2
f 97/1/2 98/1/2 103/1/2
f 102/3/2 97/3/2 103/3/2
f 103/1/2 98/1/2 104/1/2
f 99/3/2 100/3/2 108/3/2
f 100/1/2 101/1/2 109/1/2
f 108/3/2 100/3/2 109/3/2
f 109/1/2 101/1/2 110/1/2
f 107/4/2 108/4/2 111/4/2
f 106/4/2 107/4/2 111/4/2
f 105/4/2 106/4/2 111/4/2
f 104/4/2 105/4/2 111/4/2
f 111/4/2 108/4/2 112/4/2
f 113/1/2 114/1/2 118/1/2
f 114/3/2 115/3/2 119/3/2
f 118/1/2 114/1/2 119/1/2
f 115/1/2 116/1/2 120/1/2
f 119/3/2 115/3/2 120/3/2
f 116/3/2 117/3/2 121/3/2
f 120/1/2 116/1/2 121/1/2
f 121/3/2 117/3/2 122/3/2
f 125/1/3 124/1/3 123/1/3
f 126/1/3 124/1/3 125/1/3
f 127/3/3 126/3/3 125/3/3
f 128/3/3 126/3/3 127/3/3
f 129/1/3 128/1/3 127/1/3
f 130/1/3 128/1/3 129/1/3
f 131/3/3 130/3/3 129/3/3
f 132/3/3 130/3/3 131/3/3
f 135/1/3 134/1/3 133/1/3
f 136/1/3 134/1/3 135/1/3
f 137/3/3 136/3/3 135/3/3
f 138/3/3 136/3/3 137/3/3
f 140/4/3 139/4/3 138/4/3
f 141/4/3 139/4/3 140/4/3
f 142/4/3 139/4/3 141/4/3
f 144/4/3 139/4/3 142/4/3
f 145/4/3 139/4/3 144/4/3
f 146/1/3 144/1/3 143/1/3
f 147/1/3 144/1/3 146/1/3
f 148/3/3 147/3/3 146/3/3
f 149/3/3 147/3/3 148/3/3
f 152/4/3 151/4/3 150/4/3
f 153/4/3 151/4/3 152/4/3
f 156/4/3 155/4/3 154/4/3
f 157/4/3 155/4/3 156/4/3
f 160/1/3 159/1/3 158/1/3
f 161/1/3 159/1/3 160/1/3
f 163/4/3 162/4/3 161/4/3
f 164/4/3 162/4/3 163/4/3
f 168/4/3 166/4/3 165/4/3
f 169/4/3 166/4/3 168/4/3
f 170/1/3 168/1/3 167/1/3
f 171/1/3 168/1/3 170/1/3
f 174/4/3 173/4/3 172/4/3
f 175/4/3 173/4/3 174/4/3
f 178/4/3 177/4/3 176/4/3
f 179/4/3 177/4/3 178/4/3
f 182/4/3 181/4/3 180/4/3
f 183/4/3 181/4/3 182/4/3
f 184/4/4 185/4/4 186/4/4
f 186/4/4 185/4/4 187/4/4
f 188/4/4 189/4/4 190/4/4
f 190/4/4 189/4/4 191/4/4
f 192/4/4 193/4/4 194/4/4
f 194/4/4 193/4/4 195/4/4
f 196/3/4 197/3/4 198/3/4
f 198/3/4 197/3/4 199/3/4
f 199/4/4 200/4/4 201/4/4
f 201/4/4 200/4/4 202/4/4
f 203/4/4 204/4/4 206/4/4
f 206/4/4 204/4/4 207/4/4
f 205/3/4 206/3/4 208/3/4
f 208/3/4 206/3/4 209/3/4
f 210/4/4 211/4/4 212/4/4
f 212/4/4 211/4/4 213/4/4
f 214/4/4 215/4/4 216/4/4
f 216/4/4 215/4/4 217/4/4
f 218/3/4 219/3/4 220/3/4
f 220/3/4 219/3/4 221/3/4
f 220/1/4 221/1/4 222/1/4
f 222/1/4 221/1/4 223/1/4
f 223/4/4 224/4/4 225/4/4
f 225/4/4 224/4/4 226/4/4
f 226/4/4 224/4/4 227/4/4
f 227/4/4 224/4/4 229/4/4
f 229/4/4 224/4/4 230/4/4
f 228/3/4 229/3/4 231/3/4
f 231/3/4 229/3/4 232/3/4
f 231/1/4 232/1/4 233/1/4
f 233/1/4 232/1/4 234/1/4
f 235/3/4 236/3/4 237/3/4
f 237/3/4 236/3/4 238/3/4
f 237/1/4 238/1/4 239/1/4
f 239/1/4 238/1/4 240/1/4
f 239/3/4 240/3/4 241/3/4
f 241/3/4 240/3/4 242/3/4
f 241/1/4 242/1/4 243/1/4
f 243/1/4 242/1/4 244/1/4
f 252/1/5 246/1/5 245/1/5
f 253/3/5 247/3/5 246/3/5
f 253/1/5 246/1/5 252/1/5
f 254/1/5 248/1/5 247/1/5
f 254/3/5 247/3/5 253/3/5
f 255/3/5 249/3/5 248/3/5
f 255/1/5 248/1/5 254/1/5
f 256/3/5 249/3/5 255/3/5
f 259/1/5 251/1/5 250/1/5
f 260/3/5 252/3/5 251/3/5
f 260/1/5 251/1/5 259/1/5
f 260/3/5 253/3/5 252/3/5
f 260/3/5 254/3/5 253/3/5
f 260/3/5 256/3/5 255/3/5
f 260/3/5 255/3/5 254/3/5
f 261/3/5 256/3/5 260/3/5
f 262/1/5 257/1/5 256/1/5
f 262/3/5 256/3/5 261/3/5
f 263/3/5 258/3/5 257/3/5
f 263/1/5 257/1/5 262/1/5
f 264/3/5 258/3/5 263/3/5
f 266/3/5 261/3/5 260/3/5
f 266/3/5 260/3/5 259/3/5
f 267/3/5 261/3/5 266/3/5
f 268/5/5 262/5/5 261/5/5
f 268/3/5 261/3/5 267/3/5
f 269/5/5 262/5/5 268/5/5
f 270/5/5 262/5/5 269/5/5
f 271/3/5 263/3/5 262/3/5
f 271/5/5 262/5/5 270/5/5
f 272/1/5 264/1/5 263/1/5
f 272/3/5 263/3/5 271/3/5
f 273/1/5 264/1/5 272/1/5
f 275/1/5 266/1/5 265/1/5
f 276/3/5 267/3/5 266/3/5
f 276/1/5 266/1/5 275/1/5
f 277/5/5 268/5/5 267/5/5
f 277/5/5 269/5/5 268/5/5
f 278/2/5 270/2/5 269/2/5
f 278/5/5 269/5/5 277/5/5
f 279/5/5 271/5/5 270/5/5
f 279/2/5 270/2/5 278/2/5
f 279/5/5 272/5/5 271/5/5
f 280/5/5 272/5/5 279/5/5
f 281/3/5 273/3/5 272/3/5
f 281/1/5 274/1/5 273/1/5
f 282/1/5 274/1/5 281/1/5
f 283/3/5 276/3/5 275/3/5
f 284/3/5 267/3/5 276/3/5
f 284/3/5 276/3/5 283/3/5
f 285/3/5 281/3/5 272/3/5
f 285/3/5 282/3/5 281/3/5
f 286/3/5 282/3/5 285/3/5
f 287/1/5 284/1/5 283/1/5
f 288/3/5 267/3/5 284/3/5
f 288/1/5 284/1/5 287/1/5
f 289/2/5 278/2/5 277/2/5
f 289/5/5 277/5/5 267/5/5
f 289/2/5 280/2/5 279/2/5
f 289/2/5 279/2/5 278/2/5
f 290/2/5 280/2/5 289/2/5
f 291/2/5 280/2/5 290/2/5
f 292/5/5 272/5/5 280/5/5
f 292/2/5 280/2/5 291/2/5
f 293/1/5 286/1/5 285/1/5
f 293/3/5 285/3/5 272/3/5
f 294/1/5 286/1/5 293/1/5
f 295/3/5 288/3/5 287/3/5
f 296/3/5 267/3/5 288/3/5
f 296/3/5 288/3/5 295/3/5
f 297/5/5 289/5/5 267/5/5
f 297/3/5 267/3/5 296/3/5
f 297/5/5 290/5/5 289/5/5
f 298/5/5 290/5/5 297/5/5
f 299/2/5 291/2/5 290/2/5
f 299/5/5 290/5/5 298/5/5
f 300/5/5 292/5/5 291/5/5
f 300/2/5 291/2/5 299/2/5
f 301/5/5 272/5/5 292/5/5
f 301/5/5 292/5/5 300/5/5
f 302/3/5 294/3/5 293/3/5
f 302/5/5 272/5/5 301/5/5
f 302/3/5 293/3/5 272/3/5
f 303/3/5 294/3/5 302/3/5
f 304/3/5 294/3/5 303/3/5
f 305/1/5 297/1/5 296/1/5
f 306/3/5 298/3/5 297/3/5
f 306/1/5 297/1/5 305/1/5
f 307/5/5 300/5/5 299/5/5
f 307/3/5 298/3/5 306/3/5
f 307/5/5 299/5/5 298/5/5
f 307/5/5 301/5/5 300/5/5
f 308/3/5 302/3/5 301/3/5
f 308/5/5 301/5/5 307/5/5
f 308/3/5 303/3/5 302/3/5
f 309/3/5 303/3/5 308/3/5
f 310/3/5 303/3/5 309/3/5
f 311/3/5 306/3/5 305/3/5
f 312/1/5 307/1/5 306/1/5
f 312/3/5 306/3/5 311/3/5
f 313/3/5 308/3/5 307/3/5
f 313/1/5 307/1/5 312/1/5
f 313/3/5 309/3/5 308/3/5
f 314/3/5 309/3/5 313/3/5
f 315/3/5 309/3/5 314/3/5
f 316/3/5 309/3/5 315/3/5
f 317/3/5 309/3/5 316/3/5
f 318/1/5 310/1/5 309/1/5
f 318/3/5 309/3/5 317/3/5
f 319/1/5 310/1/5 318/1/5
f 320/3/5 314/3/5 313/3/5
f 321/1/5 315/1/5 314/1/5
f 321/3/5 314/3/5 320/3/5
f 322/3/5 316/3/5 315/3/5
f 322/1/5 315/1/5 321/1/5
f 323/1/5 317/1/5 316/1/5
f 323/3/5 316/3/5 322/3/5
f 324/1/5 317/1/5 323/1/5
f 325/1/6 326/1/6 332/1/6
f 326/3/6 327/3/6 333/3/6
f 332/1/6 326/1/6 333/1/6
f 327/1/6 328/1/6 334/1/6
f 333/3/6 327/3/6 334/3/6
f 328/3/6 329/3/6 335/3/6
f 334/1/6 328/1/6 335/1/6
f 335/3/6 329/3/6 336/3/6
f 330/1/6 331/1/6 339/1/6
f 331/3/6 332/3/6 340/3/6
f 339/1/6 331/1/6 340/1/6
f 340/3/6 332/3/6 341/3/6
f 336/1/6 337/1/6 342/1/6
f 337/3/6 338/3/6 343/3/6
f 342/1/6 337/1/6 343/1/6
f 343/3/6 338/3/6 344/3/6
f 339/3/6 340/3/6 346/3/6
f 346/3/6 340/3/6 347/3/6
f 341/5/6 342/5/6 348/5/6
f 348/5/6 342/5/6 349/5/6
f 349/5/6 342/5/6 350/5/6
f 350/5/6 342/5/6 351/5/6
f 343/1/6 344/1/6 352/1/6
f 352/1/6 344/1/6 353/1/6
f 345/1/6 346/1/6 355/1/6
f 355/1/6 346/1/6 356/1/6
f 347/5/6 348/5/6 357/5/6
f 348/5/6 349/5/6 357/5/6
f 349/2/6 350/2/6 358/2/6
f 357/5/6 349/5/6 358/5/6
f 351/5/6 352/5/6 359/5/6
f 358/2/6 350/2/6 359/2/6
f 350/5/6 351/5/6 359/5/6
f 359/5/6 352/5/6 360/5/6
f 353/1/6 354/1/6 361/1/6
f 361/1/6 354/1/6 362/1/6
f 355/3/6 356/3/6 363/3/6
f 363/3/6 356/3/6 364/3/6
f 361/3/6 362/3/6 365/3/6
f 365/3/6 362/3/6 366/3/6
f 363/1/6 364/1/6 367/1/6
f 367/1/6 364/1/6 368/1/6
f 357/2/6 358/2/6 369/2/6
f 347/5/6 357/5/6 369/5/6
f 358/2/6 359/2/6 369/2/6
f 359/2/6 360/2/6 369/2/6
f 369/2/6 360/2/6 370/2/6
f 370/2/6 360/2/6 371/2/6
f 360/5/6 352/5/6 372/5/6
f 371/2/6 360/2/6 372/2/6
f 365/1/6 366/1/6 373/1/6
f 373/1/6 366/1/6 374/1/6
f 367/3/6 368/3/6 375/3/6
f 375/3/6 368/3/6 376/3/6
f 347/5/6 369/5/6 377/5/6
f 369/5/6 370/5/6 377/5/6
f 377/5/6 370/5/6 378/5/6
f 370/2/6 371/2/6 379/2/6
f 378/5/6 370/5/6 379/5/6
f 371/5/6 372/5/6 380/5/6
f 379/2/6 371/2/6 380/2/6
f 372/5/6 352/5/6 381/5/6
f 380/5/6 372/5/6 381/5/6
f 381/5/6 352/5/6 382/5/6
f 373/3/6 374/3/6 383/3/6
f 383/3/6 374/3/6 384/3/6
f 376/1/6 377/1/6 385/1/6
f 385/1/6 377/1/6 386/1/6
f 379/5/6 380/5/6 387/5/6
f 378/5/6 379/5/6 387/5/6
f 380/5/6 381/5/6 387/5/6
f 387/5/6 381/5/6 388/5/6
f 382/3/6 383/3/6 389/3/6
f 389/3/6 383/3/6 390/3/6
f 385/3/6 386/3/6 391/3/6
f 386/1/6 387/1/6 392/1/6
f 391/3/6 386/3/6 392/3/6
f 392/1/6 387/1/6 393/1/6
f 388/3/6 389/3/6 397/3/6
f 389/1/6 390/1/6 398/1/6
f 397/3/6 389/3/6 398/3/6
f 398/1/6 390/1/6 399/1/6
f 393/3/6 394/3/6 400/3/6
f 394/1/6 395/1/6 401/1/6
f 400/3/6 394/3/6 401/3/6
f 395/3/6 396/3/6 402/3/6
f 401/1/6 395/1/6 402/1/6
f 396/1/6 397/1/6 403/1/6
f 402/3/6 396/3/6 403/3/6
f 403/1/6 397/1/6 404/1/6
f 405/4/6 406/4/6 408/4/6
f 408/4/6 406/4/6 409/4/6
f 407/4/6 408/4/6 412/4/6
f 412/4/6 408/4/6 413/4/6
f 409/4/6 410/4/6 414/4/6
f 414/4/6 410/4/6 415/4/6
f 411/4/6 412/4/6 417/4/6
f 417/4/6 412/4/6 418/4/6
f 415/4/6 416/4/6 421/4/6
f 421/4/6 416/4/6 422/4/6
f 418/4/6 419/4/6 423/4/6
f 423/4/6 419/4/6 424/4/6
f 420/4/6 421/4/6 425/4/6
f 425/4/6 421/4/6 426/4/6
f 424/4/6 425/4/6 427/4/6
f 427/4/6 425/4/6 428/4/6
