# MagicaVoxel @ Ephtracy

# material
mtllib KelpMonster.mtl
usemtl palette

# normals
vn -1 0 0
vn 1 0 0
vn 0 0 1
vn 0 0 -1
vn 0 -1 0
vn 0 1 0

# texcoords
vt 0.939453 0.5
vt 0.955078 0.5
vt 0.982422 0.5
vt 0.994141 0.5

# verts
v -3 0 1.5
v -3 0 -0.5
v -3 0 -1.5
v -3 0 -2.5
v -3 1 2.5
v -3 1 1.5
v -3 1 -0.5
v -3 1 -1.5
v -3 1 -2.5
v -3 1 -3.5
v -3 2 2.5
v -3 2 -0.5
v -3 3 2.5
v -3 3 -0.5
v -3 3 -2.5
v -3 3 -3.5
v -3 4 -0.5
v -3 4 -1.5
v -3 4 -2.5
v -3 4 -3.5
v -3 5 2.5
v -3 5 1.5
v -3 5 -2.5
v -3 5 -3.5
v -3 6 1.5
v -3 6 -0.5
v -3 6 -1.5
v -3 6 -2.5
v -2 0 2.5
v -2 0 1.5
v -2 0 -2.5
v -2 0 -3.5
v -2 1 2.5
v -2 1 1.5
v -2 1 -2.5
v -2 1 -3.5
v -2 2 3.5
v -2 2 2.5
v -2 3 2.5
v -2 4 3.5
v -2 4 2.5
v -2 5 2.5
v -2 5 1.5
v -2 5 -2.5
v -2 5 -3.5
v -2 6 2.5
v -2 6 1.5
v -2 6 -2.5
v -2 6 -3.5
v -1 1 3.5
v -1 1 2.5
v -1 2 3.5
v -1 2 2.5
v -1 4 3.5
v -1 4 2.5
v -1 5 3.5
v -1 5 2.5
v 1 2 3.5
v 1 2 2.5
v 1 4 3.5
v 1 4 2.5
v -1 2 3.5
v -1 2 2.5
v -1 4 3.5
v -1 4 2.5
v 1 1 3.5
v 1 1 2.5
v 1 2 3.5
v 1 2 2.5
v 1 4 3.5
v 1 4 2.5
v 1 5 3.5
v 1 5 2.5
v 2 0 2.5
v 2 0 1.5
v 2 0 -2.5
v 2 0 -3.5
v 2 1 2.5
v 2 1 1.5
v 2 1 -2.5
v 2 1 -3.5
v 2 2 3.5
v 2 2 2.5
v 2 4 3.5
v 2 4 2.5
v 2 5 2.5
v 2 5 1.5
v 2 5 -2.5
v 2 5 -3.5
v 2 6 2.5
v 2 6 1.5
v 2 6 -2.5
v 2 6 -3.5
v 3 0 1.5
v 3 0 0.5
v 3 0 -2.5
v 3 1 2.5
v 3 1 1.5
v 3 1 0.5
v 3 1 -0.5
v 3 1 -2.5
v 3 1 -3.5
v 3 2 -2.5
v 3 2 -3.5
v 3 3 0.5
v 3 3 -0.5
v 3 3 -1.5
v 3 4 2.5
v 3 4 1.5
v 3 4 -0.5
v 3 4 -1.5
v 3 5 2.5
v 3 5 1.5
v 3 5 0.5
v 3 5 -1.5
v 3 5 -2.5
v 3 5 -3.5
v 3 6 1.5
v 3 6 0.5
v 3 6 -1.5
v 3 6 -2.5
v -2 2 3.5
v -2 4 3.5
v -1 1 3.5
v -1 2 3.5
v -1 4 3.5
v -1 5 3.5
v 1 1 3.5
v 1 2 3.5
v 1 4 3.5
v 1 5 3.5
v 2 2 3.5
v 2 4 3.5
v -3 1 2.5
v -3 2 2.5
v -3 3 2.5
v -3 5 2.5
v -2 0 2.5
v -2 1 2.5
v -2 2 2.5
v -2 3 2.5
v -2 4 2.5
v -2 5 2.5
v -2 6 2.5
v -1 1 2.5
v -1 2 2.5
v -1 4 2.5
v -1 5 2.5
v -1 6 2.5
v 0 0 2.5
v 0 1 2.5
v 0 5 2.5
v 0 6 2.5
v 1 0 2.5
v 1 1 2.5
v 1 2 2.5
v 1 4 2.5
v 1 5 2.5
v 1 6 2.5
v 2 0 2.5
v 2 1 2.5
v 2 2 2.5
v 2 4 2.5
v 2 5 2.5
v 2 6 2.5
v 3 1 2.5
v 3 4 2.5
v 3 5 2.5
v -3 0 1.5
v -3 1 1.5
v -3 5 1.5
v -3 6 1.5
v -2 0 1.5
v -2 1 1.5
v -2 5 1.5
v -2 6 1.5
v 2 0 1.5
v 2 1 1.5
v 2 5 1.5
v 2 6 1.5
v 3 0 1.5
v 3 1 1.5
v 3 5 1.5
v 3 6 1.5
v -3 0 -2.5
v -3 1 -2.5
v -3 5 -2.5
v -3 6 -2.5
v -2 0 -2.5
v -2 1 -2.5
v -2 5 -2.5
v -2 6 -2.5
v 2 0 -2.5
v 2 1 -2.5
v 2 5 -2.5
v 2 6 -2.5
v 3 0 -2.5
v 3 1 -2.5
v 3 5 -2.5
v 3 6 -2.5
v -3 1 -3.5
v -3 3 -3.5
v -3 4 -3.5
v -3 5 -3.5
v -2 0 -3.5
v -2 1 -3.5
v -2 3 -3.5
v -2 4 -3.5
v -2 5 -3.5
v -2 6 -3.5
v -1 0 -3.5
v -1 1 -3.5
v -1 3 -3.5
v -1 4 -3.5
v 0 0 -3.5
v 0 1 -3.5
v 0 2 -3.5
v 0 3 -3.5
v 0 4 -3.5
v 0 5 -3.5
v 0 6 -3.5
v 1 2 -3.5
v 1 3 -3.5
v 1 5 -3.5
v 1 6 -3.5
v 2 0 -3.5
v 2 1 -3.5
v 2 2 -3.5
v 2 5 -3.5
v 2 6 -3.5
v 3 1 -3.5
v 3 2 -3.5
v 3 5 -3.5
v -2 0 2.5
v 0 0 2.5
v 1 0 2.5
v 2 0 2.5
v -3 0 1.5
v -2 0 1.5
v 0 0 1.5
v 1 0 1.5
v 2 0 1.5
v 3 0 1.5
v 2 0 0.5
v 3 0 0.5
v -3 0 -0.5
v -2 0 -0.5
v -3 0 -1.5
v -2 0 -1.5
v -3 0 -2.5
v -2 0 -2.5
v -1 0 -2.5
v 0 0 -2.5
v 2 0 -2.5
v 3 0 -2.5
v -2 0 -3.5
v -1 0 -3.5
v 0 0 -3.5
v 2 0 -3.5
v -1 1 3.5
v 1 1 3.5
v -3 1 2.5
v -2 1 2.5
v -1 1 2.5
v 0 1 2.5
v 1 1 2.5
v 2 1 2.5
v 3 1 2.5
v -3 1 1.5
v -2 1 1.5
v 2 1 1.5
v 3 1 1.5
v -3 1 -2.5
v -2 1 -2.5
v 2 1 -2.5
v 3 1 -2.5
v -3 1 -3.5
v -2 1 -3.5
v 2 1 -3.5
v 3 1 -3.5
v -2 2 3.5
v -1 2 3.5
v 1 2 3.5
v 2 2 3.5
v -2 2 2.5
v -1 2 2.5
v 1 2 2.5
v 2 2 2.5
v -1 4 3.5
v 1 4 3.5
v -1 4 2.5
v 1 4 2.5
v -1 2 3.5
v 1 2 3.5
v -1 2 2.5
v 1 2 2.5
v -2 4 3.5
v -1 4 3.5
v 1 4 3.5
v 2 4 3.5
v -2 4 2.5
v -1 4 2.5
v 1 4 2.5
v 2 4 2.5
v -1 5 3.5
v 1 5 3.5
v -3 5 2.5
v -2 5 2.5
v -1 5 2.5
v 0 5 2.5
v 1 5 2.5
v 2 5 2.5
v 3 5 2.5
v -3 5 1.5
v -2 5 1.5
v 2 5 1.5
v 3 5 1.5
v -3 5 -2.5
v -2 5 -2.5
v 2 5 -2.5
v 3 5 -2.5
v -3 5 -3.5
v -2 5 -3.5
v 2 5 -3.5
v 3 5 -3.5
v -2 6 2.5
v -1 6 2.5
v 0 6 2.5
v 1 6 2.5
v 2 6 2.5
v -3 6 1.5
v -2 6 1.5
v -1 6 1.5
v 0 6 1.5
v 1 6 1.5
v 2 6 1.5
v 3 6 1.5
v 1 6 0.5
v 2 6 0.5
v 3 6 0.5
v -3 6 -0.5
v -2 6 -0.5
v -1 6 -0.5
v 0 6 -0.5
v 1 6 -0.5
v 2 6 -0.5
v -3 6 -1.5
v -2 6 -1.5
v -1 6 -1.5
v 0 6 -1.5
v 2 6 -1.5
v 3 6 -1.5
v -3 6 -2.5
v -2 6 -2.5
v 0 6 -2.5
v 1 6 -2.5
v 2 6 -2.5
v 3 6 -2.5
v -2 6 -3.5
v 0 6 -3.5
v 1 6 -3.5
v 2 6 -3.5

# faces
f 6/1/1 2/1/1 1/1/1
f 7/3/1 3/3/1 2/3/1
f 7/1/1 2/1/1 6/1/1
f 8/1/1 4/1/1 3/1/1
f 8/3/1 3/3/1 7/3/1
f 9/1/1 4/1/1 8/1/1
f 11/1/1 7/1/1 6/1/1
f 11/1/1 10/1/1 9/1/1
f 11/1/1 9/1/1 8/1/1
f 11/1/1 8/1/1 7/1/1
f 11/1/1 6/1/1 5/1/1
f 12/1/1 10/1/1 11/1/1
f 13/3/1 12/3/1 11/3/1
f 14/1/1 10/1/1 12/1/1
f 14/3/1 12/3/1 13/3/1
f 15/1/1 10/1/1 14/1/1
f 16/1/1 10/1/1 15/1/1
f 17/1/1 14/1/1 13/1/1
f 17/1/1 15/1/1 14/1/1
f 18/1/1 15/1/1 17/1/1
f 19/3/1 16/3/1 15/3/1
f 19/1/1 15/1/1 18/1/1
f 20/3/1 16/3/1 19/3/1
f 21/1/1 17/1/1 13/1/1
f 22/1/1 17/1/1 21/1/1
f 23/1/1 19/1/1 18/1/1
f 23/1/1 20/1/1 19/1/1
f 24/1/1 20/1/1 23/1/1
f 25/1/1 17/1/1 22/1/1
f 26/3/1 18/3/1 17/3/1
f 26/1/1 17/1/1 25/1/1
f 27/1/1 23/1/1 18/1/1
f 27/3/1 18/3/1 26/3/1
f 28/1/1 23/1/1 27/1/1
f 33/1/1 30/1/1 29/1/1
f 34/1/1 30/1/1 33/1/1
f 35/1/1 32/1/1 31/1/1
f 36/1/1 32/1/1 35/1/1
f 39/2/1 38/2/1 37/2/1
f 40/2/1 39/2/1 37/2/1
f 41/2/1 39/2/1 40/2/1
f 46/1/1 43/1/1 42/1/1
f 47/1/1 43/1/1 46/1/1
f 48/1/1 45/1/1 44/1/1
f 49/1/1 45/1/1 48/1/1
f 52/2/1 51/2/1 50/2/1
f 53/2/1 51/2/1 52/2/1
f 56/2/1 55/2/1 54/2/1
f 57/2/1 55/2/1 56/2/1
f 60/2/1 59/2/1 58/2/1
f 61/2/1 59/2/1 60/2/1
f 62/2/2 63/2/2 64/2/2
f 64/2/2 63/2/2 65/2/2
f 66/2/2 67/2/2 68/2/2
f 68/2/2 67/2/2 69/2/2
f 70/2/2 71/2/2 72/2/2
f 72/2/2 71/2/2 73/2/2
f 74/1/2 75/1/2 78/1/2
f 78/1/2 75/1/2 79/1/2
f 76/1/2 77/1/2 80/1/2
f 80/1/2 77/1/2 81/1/2
f 82/2/2 83/2/2 84/2/2
f 84/2/2 83/2/2 85/2/2
f 86/3/2 87/3/2 90/3/2
f 90/3/2 87/3/2 91/3/2
f 88/1/2 89/1/2 92/1/2
f 92/1/2 89/1/2 93/1/2
f 94/3/2 95/3/2 98/3/2
f 95/1/2 96/1/2 99/1/2
f 98/3/2 95/3/2 99/3/2
f 99/1/2 96/1/2 100/1/2
f 100/1/2 96/1/2 101/1/2
f 100/1/2 101/1/2 103/1/2
f 101/3/2 102/3/2 103/3/2
f 103/3/2 102/3/2 104/3/2
f 97/1/2 98/1/2 105/1/2
f 98/1/2 99/1/2 105/1/2
f 99/3/2 100/3/2 105/3/2
f 103/1/2 104/1/2 106/1/2
f 105/3/2 100/3/2 106/3/2
f 100/1/2 103/1/2 106/1/2
f 106/1/2 104/1/2 107/1/2
f 97/1/2 105/1/2 108/1/2
f 105/1/2 106/1/2 108/1/2
f 108/1/2 106/1/2 109/1/2
f 106/3/2 107/3/2 110/3/2
f 109/1/2 106/1/2 110/1/2
f 107/1/2 104/1/2 111/1/2
f 110/3/2 107/3/2 111/3/2
f 108/3/2 109/3/2 112/3/2
f 109/1/2 110/1/2 113/1/2
f 112/3/2 109/3/2 113/3/2
f 110/1/2 111/1/2 113/1/2
f 113/1/2 111/1/2 114/1/2
f 111/1/2 104/1/2 115/1/2
f 114/1/2 111/1/2 115/1/2
f 115/1/2 104/1/2 116/1/2
f 116/1/2 104/1/2 117/1/2
f 113/3/2 114/3/2 118/3/2
f 114/1/2 115/1/2 119/1/2
f 118/3/2 114/3/2 119/3/2
f 115/3/2 116/3/2 120/3/2
f 119/1/2 115/1/2 120/1/2
f 120/3/2 116/3/2 121/3/2
f 125/2/3 123/2/3 122/2/3
f 126/2/3 123/2/3 125/2/3
f 128/2/3 125/2/3 124/2/3
f 129/2/3 125/2/3 128/2/3
f 130/2/3 127/2/3 126/2/3
f 131/2/3 127/2/3 130/2/3
f 132/2/3 130/2/3 129/2/3
f 133/2/3 130/2/3 132/2/3
f 139/1/3 135/1/3 134/1/3
f 140/3/3 136/3/3 135/3/3
f 140/1/3 135/1/3 139/1/3
f 141/1/3 137/1/3 136/1/3
f 141/3/3 136/3/3 140/3/3
f 142/1/3 137/1/3 141/1/3
f 143/1/3 137/1/3 142/1/3
f 145/1/3 140/1/3 139/1/3
f 145/1/3 139/1/3 138/1/3
f 146/1/3 140/1/3 145/1/3
f 147/1/3 144/1/3 143/1/3
f 147/1/3 143/1/3 142/1/3
f 148/1/3 144/1/3 147/1/3
f 149/1/3 144/1/3 148/1/3
f 150/1/3 145/1/3 138/1/3
f 151/1/3 145/1/3 150/1/3
f 152/3/3 149/3/3 148/3/3
f 153/3/3 149/3/3 152/3/3
f 154/3/3 151/3/3 150/3/3
f 155/3/3 151/3/3 154/3/3
f 156/4/3 147/4/3 146/4/3
f 157/4/3 147/4/3 156/4/3
f 158/1/3 153/1/3 152/1/3
f 159/1/3 153/1/3 158/1/3
f 160/1/3 155/1/3 154/1/3
f 161/3/3 156/3/3 155/3/3
f 161/1/3 155/1/3 160/1/3
f 162/3/3 156/3/3 161/3/3
f 163/1/3 158/1/3 157/1/3
f 164/3/3 159/3/3 158/3/3
f 164/1/3 158/1/3 163/1/3
f 165/3/3 159/3/3 164/3/3
f 166/1/3 163/1/3 162/1/3
f 166/1/3 162/1/3 161/1/3
f 167/3/3 164/3/3 163/3/3
f 167/1/3 163/1/3 166/1/3
f 168/3/3 164/3/3 167/3/3
f 173/1/3 170/1/3 169/1/3
f 174/1/3 170/1/3 173/1/3
f 175/1/3 172/1/3 171/1/3
f 176/1/3 172/1/3 175/1/3
f 181/3/3 178/3/3 177/3/3
f 182/3/3 178/3/3 181/3/3
f 183/3/3 180/3/3 179/3/3
f 184/3/3 180/3/3 183/3/3
f 185/1/4 186/1/4 189/1/4
f 189/1/4 186/1/4 190/1/4
f 187/1/4 188/1/4 191/1/4
f 191/1/4 188/1/4 192/1/4
f 193/1/4 194/1/4 197/1/4
f 197/1/4 194/1/4 198/1/4
f 195/3/4 196/3/4 199/3/4
f 199/3/4 196/3/4 200/3/4
f 201/1/4 202/1/4 206/1/4
f 202/3/4 203/3/4 207/3/4
f 206/1/4 202/1/4 207/1/4
f 203/1/4 204/1/4 208/1/4
f 207/3/4 203/3/4 208/3/4
f 208/1/4 204/1/4 209/1/4
f 206/1/4 207/1/4 211/1/4
f 209/1/4 210/1/4 211/1/4
f 208/1/4 209/1/4 211/1/4
f 207/1/4 208/1/4 211/1/4
f 205/1/4 206/1/4 211/1/4
f 211/1/4 210/1/4 212/1/4
f 212/1/4 210/1/4 213/1/4
f 213/1/4 210/1/4 214/1/4
f 211/3/4 212/3/4 215/3/4
f 212/1/4 213/1/4 216/1/4
f 215/3/4 212/3/4 216/3/4
f 216/1/4 213/1/4 217/1/4
f 213/3/4 214/3/4 218/3/4
f 217/1/4 213/1/4 218/1/4
f 214/1/4 210/1/4 219/1/4
f 218/3/4 214/3/4 219/3/4
f 219/1/4 210/1/4 220/1/4
f 220/1/4 210/1/4 221/1/4
f 217/3/4 218/3/4 222/3/4
f 216/1/4 217/1/4 222/1/4
f 215/1/4 216/1/4 222/1/4
f 219/1/4 220/1/4 223/1/4
f 222/3/4 218/3/4 223/3/4
f 218/1/4 219/1/4 223/1/4
f 220/3/4 221/3/4 224/3/4
f 223/1/4 220/1/4 224/1/4
f 224/3/4 221/3/4 225/3/4
f 222/1/4 223/1/4 226/1/4
f 215/1/4 222/1/4 226/1/4
f 224/1/4 225/1/4 226/1/4
f 223/1/4 224/1/4 226/1/4
f 226/1/4 225/1/4 227/1/4
f 227/1/4 225/1/4 228/1/4
f 228/1/4 225/1/4 229/1/4
f 229/1/4 225/1/4 230/1/4
f 227/3/4 228/3/4 231/3/4
f 228/1/4 229/1/4 232/1/4
f 231/3/4 228/3/4 232/3/4
f 232/1/4 229/1/4 233/1/4
f 239/1/5 235/1/5 234/1/5
f 240/3/5 236/3/5 235/3/5
f 240/1/5 235/1/5 239/1/5
f 241/1/5 237/1/5 236/1/5
f 241/3/5 236/3/5 240/3/5
f 242/1/5 237/1/5 241/1/5
f 244/1/5 240/1/5 239/1/5
f 244/3/5 243/3/5 242/3/5
f 244/1/5 242/1/5 241/1/5
f 244/1/5 241/1/5 240/1/5
f 244/1/5 239/1/5 238/1/5
f 245/3/5 243/3/5 244/3/5
f 246/1/5 244/1/5 238/1/5
f 246/1/5 245/1/5 244/1/5
f 247/1/5 245/1/5 246/1/5
f 248/3/5 247/3/5 246/3/5
f 249/1/5 245/1/5 247/1/5
f 249/3/5 247/3/5 248/3/5
f 250/1/5 249/1/5 248/1/5
f 251/1/5 245/1/5 249/1/5
f 251/1/5 249/1/5 250/1/5
f 252/1/5 245/1/5 251/1/5
f 253/1/5 245/1/5 252/1/5
f 254/1/5 245/1/5 253/1/5
f 255/1/5 245/1/5 254/1/5
f 256/1/5 252/1/5 251/1/5
f 257/3/5 253/3/5 252/3/5
f 257/1/5 252/1/5 256/1/5
f 258/1/5 254/1/5 253/1/5
f 258/3/5 253/3/5 257/3/5
f 259/1/5 254/1/5 258/1/5
f 264/2/5 261/2/5 260/2/5
f 265/2/5 261/2/5 264/2/5
f 266/2/5 261/2/5 265/2/5
f 269/1/5 263/1/5 262/1/5
f 270/1/5 263/1/5 269/1/5
f 271/1/5 268/1/5 267/1/5
f 272/1/5 268/1/5 271/1/5
f 277/1/5 274/1/5 273/1/5
f 278/1/5 274/1/5 277/1/5
f 279/3/5 276/3/5 275/3/5
f 280/3/5 276/3/5 279/3/5
f 285/2/5 282/2/5 281/2/5
f 286/2/5 282/2/5 285/2/5
f 287/2/5 284/2/5 283/2/5
f 288/2/5 284/2/5 287/2/5
f 291/2/5 290/2/5 289/2/5
f 292/2/5 290/2/5 291/2/5
f 293/2/6 294/2/6 295/2/6
f 295/2/6 294/2/6 296/2/6
f 297/2/6 298/2/6 301/2/6
f 301/2/6 298/2/6 302/2/6
f 299/2/6 300/2/6 303/2/6
f 303/2/6 300/2/6 304/2/6
f 305/2/6 306/2/6 309/2/6
f 309/2/6 306/2/6 310/2/6
f 310/2/6 306/2/6 311/2/6
f 307/1/6 308/1/6 314/1/6
f 314/1/6 308/1/6 315/1/6
f 312/3/6 313/3/6 316/3/6
f 316/3/6 313/3/6 317/3/6
f 318/1/6 319/1/6 322/1/6
f 322/1/6 319/1/6 323/1/6
f 320/1/6 321/1/6 324/1/6
f 324/1/6 321/1/6 325/1/6
f 326/1/6 327/1/6 332/1/6
f 327/3/6 328/3/6 333/3/6
f 332/1/6 327/1/6 333/1/6
f 328/1/6 329/1/6 334/1/6
f 333/3/6 328/3/6 334/3/6
f 329/3/6 330/3/6 335/3/6
f 334/1/6 329/1/6 335/1/6
f 335/3/6 330/3/6 336/3/6
f 333/1/6 334/1/6 338/1/6
f 331/1/6 332/1/6 338/1/6
f 335/1/6 336/1/6 338/1/6
f 334/1/6 335/1/6 338/1/6
f 332/1/6 333/1/6 338/1/6
f 336/3/6 337/3/6 339/3/6
f 338/1/6 336/1/6 339/1/6
f 339/3/6 337/3/6 340/3/6
f 331/1/6 338/1/6 341/1/6
f 341/1/6 338/1/6 342/1/6
f 342/1/6 338/1/6 343/1/6
f 343/1/6 338/1/6 344/1/6
f 338/3/6 339/3/6 345/3/6
f 344/1/6 338/1/6 345/1/6
f 339/1/6 340/1/6 346/1/6
f 345/3/6 339/3/6 346/3/6
f 341/3/6 342/3/6 347/3/6
f 342/1/6 343/1/6 348/1/6
f 347/3/6 342/3/6 348/3/6
f 343/3/6 344/3/6 349/3/6
f 348/1/6 343/1/6 349/1/6
f 344/1/6 345/1/6 350/1/6
f 349/3/6 344/3/6 350/3/6
f 345/1/6 346/1/6 350/1/6
f 346/1/6 340/1/6 351/1/6
f 350/1/6 346/1/6 351/1/6
f 351/1/6 340/1/6 352/1/6
f 347/1/6 348/1/6 353/1/6
f 348/1/6 349/1/6 353/1/6
f 349/1/6 350/1/6 353/1/6
f 350/1/6 351/1/6 353/1/6
f 353/1/6 351/1/6 354/1/6
f 354/1/6 351/1/6 355/1/6
f 355/1/6 351/1/6 356/1/6
f 351/3/6 352/3/6 357/3/6
f 356/1/6 351/1/6 357/1/6
f 357/3/6 352/3/6 358/3/6
f 354/1/6 355/1/6 359/1/6
f 355/3/6 356/3/6 360/3/6
f 359/1/6 355/1/6 360/1/6
f 356/1/6 357/1/6 361/1/6
f 360/3/6 356/3/6 361/3/6
f 361/1/6 357/1/6 362/1/6
