# MagicaVoxel @ Ephtracy

# material
mtllib Fireball02.mtl
usemtl palette

# normals
vn -1 0 0
vn 1 0 0
vn 0 0 1
vn 0 0 -1
vn 0 -1 0
vn 0 1 0

# texcoords
vt 0.947266 0.5
vt 0.951172 0.5
vt 0.955078 0.5
vt 0.958984 0.5

# verts
v -2 0 3.5
v -2 0 -0.5
v -2 0 -1.5
v -2 0 -2.5
v -2 1 4.5
v -2 1 3.5
v -2 1 2.5
v -2 1 0.5
v -2 1 -0.5
v -2 1 -1.5
v -2 1 -2.5
v -2 2 2.5
v -2 2 0.5
v -2 3 4.5
v -2 3 3.5
v -2 3 2.5
v -2 3 -0.5
v -2 3 -1.5
v -2 3 -2.5
v -2 3 -3.5
v -2 4 3.5
v -2 4 2.5
v -2 4 -0.5
v -2 4 -2.5
v -2 4 -3.5
v -1 0 4.5
v -1 0 3.5
v -1 0 -2.5
v -1 0 -3.5
v -1 1 4.5
v -1 1 3.5
v -1 1 -1.5
v -1 1 -2.5
v -1 1 -3.5
v -1 3 4.5
v -1 3 3.5
v -1 3 -1.5
v -1 3 -2.5
v -1 4 4.5
v -1 4 3.5
v 0 0 -3.5
v 0 0 -4.5
v 0 1 -2.5
v 0 1 -3.5
v 0 1 -4.5
v 0 2 -2.5
v 0 2 -3.5
v 1 3 -2.5
v 1 3 -3.5
v 1 4 -2.5
v 1 4 -3.5
v -1 3 -2.5
v -1 3 -3.5
v -1 4 -2.5
v -1 4 -3.5
v 1 0 4.5
v 1 0 3.5
v 1 0 -1.5
v 1 0 -4.5
v 1 1 4.5
v 1 1 3.5
v 1 1 -1.5
v 1 1 -2.5
v 1 1 -3.5
v 1 1 -4.5
v 1 2 -1.5
v 1 2 -2.5
v 1 2 -3.5
v 1 3 4.5
v 1 3 3.5
v 1 3 -1.5
v 1 3 -2.5
v 1 4 4.5
v 1 4 3.5
v 2 0 3.5
v 2 0 2.5
v 2 0 1.5
v 2 0 -1.5
v 2 1 4.5
v 2 1 3.5
v 2 1 0.5
v 2 1 -1.5
v 2 1 -2.5
v 2 2 4.5
v 2 2 3.5
v 2 2 2.5
v 2 2 1.5
v 2 2 0.5
v 2 2 -1.5
v 2 2 -2.5
v 2 3 4.5
v 2 3 3.5
v 2 3 2.5
v 2 3 0.5
v 2 3 -0.5
v 2 3 -1.5
v 2 3 -3.5
v 2 4 3.5
v 2 4 2.5
v 2 4 0.5
v 2 4 -0.5
v 2 4 -3.5
v -2 1 4.5
v -2 3 4.5
v -1 0 4.5
v -1 1 4.5
v -1 2 4.5
v -1 3 4.5
v -1 4 4.5
v 0 1 4.5
v 0 2 4.5
v 0 3 4.5
v 0 4 4.5
v 1 0 4.5
v 1 1 4.5
v 1 2 4.5
v 1 3 4.5
v 1 4 4.5
v 2 1 4.5
v 2 2 4.5
v 2 3 4.5
v -2 0 3.5
v -2 1 3.5
v -2 3 3.5
v -2 4 3.5
v -1 0 3.5
v -1 1 3.5
v -1 3 3.5
v -1 4 3.5
v 1 0 3.5
v 1 1 3.5
v 1 3 3.5
v 1 4 3.5
v 2 0 3.5
v 2 1 3.5
v 2 3 3.5
v 2 4 3.5
v -2 1 -1.5
v -2 3 -1.5
v -1 1 -1.5
v -1 3 -1.5
v 1 0 -1.5
v 1 1 -1.5
v 1 2 -1.5
v 1 3 -1.5
v 2 0 -1.5
v 2 1 -1.5
v 2 2 -1.5
v 2 3 -1.5
v -2 0 -2.5
v -2 1 -2.5
v -1 0 -2.5
v -1 1 -2.5
v -1 3 -2.5
v -1 4 -2.5
v 0 1 -2.5
v 0 2 -2.5
v 0 3 -2.5
v 0 4 -2.5
v 1 1 -2.5
v 1 2 -2.5
v 1 3 -2.5
v 1 4 -2.5
v 2 1 -2.5
v 2 2 -2.5
v -2 3 -3.5
v -2 4 -3.5
v -1 0 -3.5
v -1 1 -3.5
v -1 3 -3.5
v -1 4 -3.5
v 0 0 -3.5
v 0 1 -3.5
v 0 2 -3.5
v 1 1 -3.5
v 1 2 -3.5
v 1 3 -3.5
v 1 4 -3.5
v 2 3 -3.5
v 2 4 -3.5
v 0 0 -4.5
v 0 1 -4.5
v 1 0 -4.5
v 1 1 -4.5
v -1 0 4.5
v 1 0 4.5
v -2 0 3.5
v -1 0 3.5
v 1 0 3.5
v 2 0 3.5
v 1 0 2.5
v 2 0 2.5
v 1 0 1.5
v 2 0 1.5
v -2 0 -0.5
v -1 0 -0.5
v -2 0 -1.5
v -1 0 -1.5
v 1 0 -1.5
v 2 0 -1.5
v -2 0 -2.5
v -1 0 -2.5
v -1 0 -3.5
v 0 0 -3.5
v 0 0 -4.5
v 1 0 -4.5
v -2 1 4.5
v -1 1 4.5
v 1 1 4.5
v 2 1 4.5
v -2 1 3.5
v -1 1 3.5
v 1 1 3.5
v 2 1 3.5
v 1 1 -1.5
v 2 1 -1.5
v 1 1 -2.5
v 2 1 -2.5
v -2 3 -1.5
v -1 3 -1.5
v 1 3 -1.5
v 2 3 -1.5
v -2 3 -2.5
v -1 3 -2.5
v 1 3 -2.5
v -2 3 -3.5
v -1 3 -3.5
v 1 3 -3.5
v 2 3 -3.5
v -2 1 -1.5
v -1 1 -1.5
v -2 1 -2.5
v -1 1 -2.5
v 0 1 -2.5
v -1 1 -3.5
v 0 1 -3.5
v 1 1 -3.5
v 0 1 -4.5
v 1 1 -4.5
v 1 2 -1.5
v 2 2 -1.5
v 0 2 -2.5
v 1 2 -2.5
v 2 2 -2.5
v 0 2 -3.5
v 1 2 -3.5
v -2 3 4.5
v -1 3 4.5
v 1 3 4.5
v 2 3 4.5
v -2 3 3.5
v -1 3 3.5
v 1 3 3.5
v 2 3 3.5
v -1 4 4.5
v 0 4 4.5
v 1 4 4.5
v -2 4 3.5
v -1 4 3.5
v 1 4 3.5
v 2 4 3.5
v -2 4 2.5
v -1 4 2.5
v 0 4 2.5
v 2 4 2.5
v -1 4 1.5
v 0 4 1.5
v -1 4 0.5
v 0 4 0.5
v 1 4 0.5
v 2 4 0.5
v -2 4 -0.5
v -1 4 -0.5
v 1 4 -0.5
v 2 4 -0.5
v 0 4 -1.5
v 1 4 -1.5
v -2 4 -2.5
v -1 4 -2.5
v 0 4 -2.5
v 1 4 -2.5
v -2 4 -3.5
v -1 4 -3.5
v 1 4 -3.5
v 2 4 -3.5

# faces
f 6/1/1 2/1/1 1/1/1
f 7/1/1 2/1/1 6/1/1
f 8/1/1 2/1/1 7/1/1
f 9/4/1 3/4/1 2/4/1
f 9/1/1 2/1/1 8/1/1
f 10/1/1 4/1/1 3/1/1
f 10/4/1 3/4/1 9/4/1
f 11/1/1 4/1/1 10/1/1
f 12/4/1 8/4/1 7/4/1
f 12/1/1 6/1/1 5/1/1
f 12/1/1 7/1/1 6/1/1
f 13/1/1 9/1/1 8/1/1
f 13/4/1 8/4/1 12/4/1
f 13/1/1 10/1/1 9/1/1
f 14/1/1 12/1/1 5/1/1
f 14/1/1 13/1/1 12/1/1
f 15/1/1 13/1/1 14/1/1
f 16/1/1 13/1/1 15/1/1
f 17/1/1 10/1/1 13/1/1
f 17/1/1 13/1/1 16/1/1
f 18/1/1 10/1/1 17/1/1
f 21/4/1 16/4/1 15/4/1
f 22/1/1 17/1/1 16/1/1
f 22/4/1 16/4/1 21/4/1
f 23/4/1 19/4/1 18/4/1
f 23/1/1 17/1/1 22/1/1
f 23/4/1 18/4/1 17/4/1
f 24/1/1 20/1/1 19/1/1
f 24/4/1 19/4/1 23/4/1
f 25/1/1 20/1/1 24/1/1
f 30/1/1 27/1/1 26/1/1
f 31/1/1 27/1/1 30/1/1
f 33/1/1 29/1/1 28/1/1
f 34/1/1 29/1/1 33/1/1
f 37/1/1 33/1/1 32/1/1
f 38/1/1 33/1/1 37/1/1
f 39/1/1 36/1/1 35/1/1
f 40/1/1 36/1/1 39/1/1
f 44/1/1 42/1/1 41/1/1
f 45/1/1 42/1/1 44/1/1
f 46/1/1 44/1/1 43/1/1
f 47/1/1 44/1/1 46/1/1
f 50/1/1 49/1/1 48/1/1
f 51/1/1 49/1/1 50/1/1
f 52/1/2 53/1/2 54/1/2
f 54/1/2 53/1/2 55/1/2
f 56/1/2 57/1/2 60/1/2
f 60/1/2 57/1/2 61/1/2
f 58/1/2 59/1/2 62/1/2
f 62/1/2 59/1/2 63/1/2
f 63/1/2 59/1/2 64/1/2
f 64/1/2 59/1/2 65/1/2
f 63/1/2 64/1/2 67/1/2
f 67/1/2 64/1/2 68/1/2
f 66/1/2 67/1/2 71/1/2
f 71/1/2 67/1/2 72/1/2
f 69/4/2 70/4/2 73/4/2
f 73/4/2 70/4/2 74/4/2
f 75/1/2 76/1/2 80/1/2
f 77/1/2 78/1/2 81/1/2
f 81/1/2 78/1/2 82/1/2
f 79/1/2 80/1/2 84/1/2
f 80/1/2 76/1/2 85/1/2
f 84/1/2 80/1/2 85/1/2
f 76/4/2 77/4/2 86/4/2
f 85/1/2 76/1/2 86/1/2
f 77/1/2 81/1/2 87/1/2
f 86/4/2 77/4/2 87/4/2
f 81/4/2 82/4/2 88/4/2
f 87/1/2 81/1/2 88/1/2
f 82/1/2 83/1/2 89/1/2
f 88/4/2 82/4/2 89/4/2
f 89/1/2 83/1/2 90/1/2
f 84/4/2 85/4/2 91/4/2
f 87/1/2 88/1/2 92/1/2
f 91/4/2 85/4/2 92/4/2
f 85/1/2 86/1/2 92/1/2
f 88/1/2 89/1/2 92/1/2
f 86/1/2 87/1/2 92/1/2
f 92/1/2 89/1/2 93/1/2
f 93/1/2 89/1/2 94/1/2
f 94/1/2 89/1/2 95/1/2
f 95/1/2 89/1/2 96/1/2
f 92/4/2 93/4/2 98/4/2
f 93/1/2 94/1/2 99/1/2
f 98/4/2 93/4/2 99/4/2
f 94/4/2 95/4/2 100/4/2
f 99/1/2 94/1/2 100/1/2
f 95/1/2 96/1/2 101/1/2
f 100/4/2 95/4/2 101/4/2
f 96/1/2 97/1/2 101/1/2
f 101/1/2 97/1/2 102/1/2
f 106/1/3 104/1/3 103/1/3
f 107/1/3 104/1/3 106/1/3
f 108/1/3 104/1/3 107/1/3
f 110/1/3 106/1/3 105/1/3
f 110/2/3 107/2/3 106/2/3
f 111/3/3 108/3/3 107/3/3
f 111/2/3 107/2/3 110/2/3
f 112/1/3 109/1/3 108/1/3
f 112/3/3 108/3/3 111/3/3
f 113/1/3 109/1/3 112/1/3
f 114/1/3 110/1/3 105/1/3
f 115/3/3 111/3/3 110/3/3
f 115/1/3 110/1/3 114/1/3
f 116/2/3 112/2/3 111/2/3
f 116/3/3 111/3/3 115/3/3
f 117/4/3 113/4/3 112/4/3
f 117/2/3 112/2/3 116/2/3
f 118/4/3 113/4/3 117/4/3
f 119/1/3 116/1/3 115/1/3
f 120/4/3 117/4/3 116/4/3
f 120/1/3 116/1/3 119/1/3
f 121/4/3 117/4/3 120/4/3
f 126/1/3 123/1/3 122/1/3
f 127/1/3 123/1/3 126/1/3
f 128/4/3 125/4/3 124/4/3
f 129/4/3 125/4/3 128/4/3
f 134/1/3 131/1/3 130/1/3
f 135/1/3 131/1/3 134/1/3
f 136/4/3 133/4/3 132/4/3
f 137/4/3 133/4/3 136/4/3
f 138/1/4 139/1/4 140/1/4
f 140/1/4 139/1/4 141/1/4
f 142/1/4 143/1/4 146/1/4
f 146/1/4 143/1/4 147/1/4
f 144/1/4 145/1/4 148/1/4
f 148/1/4 145/1/4 149/1/4
f 150/1/4 151/1/4 152/1/4
f 152/1/4 151/1/4 153/1/4
f 154/1/4 155/1/4 156/1/4
f 153/1/4 154/1/4 156/1/4
f 156/1/4 155/1/4 157/1/4
f 157/1/4 155/1/4 158/1/4
f 158/1/4 155/1/4 159/1/4
f 157/1/4 158/1/4 161/1/4
f 158/4/4 159/4/4 162/4/4
f 161/1/4 158/1/4 162/1/4
f 162/4/4 159/4/4 163/4/4
f 160/1/4 161/1/4 164/1/4
f 164/1/4 161/1/4 165/1/4
f 166/1/4 167/1/4 170/1/4
f 170/1/4 167/1/4 171/1/4
f 168/1/4 169/1/4 172/1/4
f 172/1/4 169/1/4 173/1/4
f 173/1/4 174/1/4 175/1/4
f 175/1/4 174/1/4 176/1/4
f 177/1/4 178/1/4 179/1/4
f 179/1/4 178/1/4 180/1/4
f 181/1/4 182/1/4 183/1/4
f 183/1/4 182/1/4 184/1/4
f 188/1/5 186/1/5 185/1/5
f 189/1/5 186/1/5 188/1/5
f 191/1/5 188/1/5 187/1/5
f 191/1/5 190/1/5 189/1/5
f 191/1/5 189/1/5 188/1/5
f 192/1/5 190/1/5 191/1/5
f 193/1/5 191/1/5 187/1/5
f 193/4/5 192/4/5 191/4/5
f 194/4/5 192/4/5 193/4/5
f 195/1/5 193/1/5 187/1/5
f 195/1/5 194/1/5 193/1/5
f 196/1/5 194/1/5 195/1/5
f 197/4/5 196/4/5 195/4/5
f 198/1/5 194/1/5 196/1/5
f 198/4/5 196/4/5 197/4/5
f 199/1/5 194/1/5 198/1/5
f 200/1/5 194/1/5 199/1/5
f 201/1/5 198/1/5 197/1/5
f 201/1/5 199/1/5 198/1/5
f 202/1/5 199/1/5 201/1/5
f 203/1/5 199/1/5 202/1/5
f 204/1/5 199/1/5 203/1/5
f 205/1/5 199/1/5 204/1/5
f 206/1/5 199/1/5 205/1/5
f 211/1/5 208/1/5 207/1/5
f 212/1/5 208/1/5 211/1/5
f 213/1/5 210/1/5 209/1/5
f 214/1/5 210/1/5 213/1/5
f 217/1/5 216/1/5 215/1/5
f 218/1/5 216/1/5 217/1/5
f 223/4/5 220/4/5 219/4/5
f 224/4/5 220/4/5 223/4/5
f 225/1/5 222/1/5 221/1/5
f 226/1/5 224/1/5 223/1/5
f 227/1/5 224/1/5 226/1/5
f 228/1/5 222/1/5 225/1/5
f 229/1/5 222/1/5 228/1/5
f 230/1/6 231/1/6 232/1/6
f 232/1/6 231/1/6 233/1/6
f 233/1/6 234/1/6 235/1/6
f 235/1/6 234/1/6 236/1/6
f 236/1/6 237/1/6 238/1/6
f 238/1/6 237/1/6 239/1/6
f 240/1/6 241/1/6 243/1/6
f 243/1/6 241/1/6 244/1/6
f 242/1/6 243/1/6 245/1/6
f 245/1/6 243/1/6 246/1/6
f 247/1/6 248/1/6 251/1/6
f 251/1/6 248/1/6 252/1/6
f 249/4/6 250/4/6 253/4/6
f 253/4/6 250/4/6 254/4/6
f 255/1/6 256/1/6 259/1/6
f 256/4/6 257/4/6 260/4/6
f 258/4/6 259/4/6 262/4/6
f 259/1/6 256/1/6 263/1/6
f 262/4/6 259/4/6 263/4/6
f 260/4/6 261/4/6 264/4/6
f 263/1/6 256/1/6 264/1/6
f 256/4/6 260/4/6 264/4/6
f 264/4/6 261/4/6 265/4/6
f 262/1/6 263/1/6 266/1/6
f 263/1/6 264/1/6 266/1/6
f 264/1/6 265/1/6 266/1/6
f 266/1/6 265/1/6 267/1/6
f 262/1/6 266/1/6 268/1/6
f 266/4/6 267/4/6 268/4/6
f 267/1/6 265/1/6 269/1/6
f 268/4/6 267/4/6 269/4/6
f 269/1/6 265/1/6 270/1/6
f 270/1/6 265/1/6 271/1/6
f 262/1/6 268/1/6 272/1/6
f 268/1/6 269/1/6 272/1/6
f 269/1/6 270/1/6 272/1/6
f 272/1/6 270/1/6 273/1/6
f 270/4/6 271/4/6 274/4/6
f 273/1/6 270/1/6 274/1/6
f 274/4/6 271/4/6 275/4/6
f 273/1/6 274/1/6 276/1/6
f 274/1/6 275/1/6 276/1/6
f 276/1/6 275/1/6 277/1/6
f 272/4/6 273/4/6 278/4/6
f 273/1/6 276/1/6 279/1/6
f 278/4/6 273/4/6 279/4/6
f 276/4/6 277/4/6 280/4/6
f 279/1/6 276/1/6 280/1/6
f 277/1/6 275/1/6 281/1/6
f 280/4/6 277/4/6 281/4/6
f 278/1/6 279/1/6 282/1/6
f 282/1/6 279/1/6 283/1/6
f 281/1/6 275/1/6 284/1/6
f 284/1/6 275/1/6 285/1/6
