# MagicaVoxel @ Ephtracy

# material
mtllib Fireball.mtl
usemtl palette

# normals
vn -1 0 0
vn 1 0 0
vn 0 0 1
vn 0 0 -1
vn 0 -1 0
vn 0 1 0

# texcoords
vt 0.947266 0.5
vt 0.951172 0.5
vt 0.955078 0.5
vt 0.958984 0.5

# verts
v -2 0 3
v -2 0 -1
v -2 0 -2
v -2 0 -3
v -2 1 4
v -2 1 3
v -2 1 2
v -2 1 -0
v -2 1 -1
v -2 1 -2
v -2 1 -3
v -2 1 -4
v -2 2 2
v -2 2 -0
v -2 2 -2
v -2 2 -3
v -2 2 -4
v -2 3 4
v -2 3 3
v -2 3 2
v -2 3 -1
v -2 3 -2
v -2 3 -3
v -2 4 3
v -2 4 2
v -2 4 -1
v -2 4 -3
v -1 0 4
v -1 0 3
v -1 1 4
v -1 1 3
v -1 2 -2
v -1 2 -3
v -1 3 4
v -1 3 3
v -1 3 -2
v -1 3 -3
v -1 4 4
v -1 4 3
v 0 3 -2
v 0 3 -3
v 0 3 -4
v 0 4 -2
v 0 4 -4
v 1 0 -2
v 1 0 -3
v 1 1 -2
v 1 1 -3
v 1 1 -4
v 1 2 -3
v 1 2 -4
v -1 0 -2
v -1 0 -3
v -1 1 -2
v -1 1 -3
v -1 1 -4
v -1 2 -3
v -1 2 -4
v -1 3 -2
v -1 3 -3
v -1 4 -2
v -1 4 -3
v 0 2 -2
v 0 2 -3
v 0 3 -2
v 0 3 -3
v 1 0 4
v 1 0 3
v 1 1 4
v 1 1 3
v 1 3 4
v 1 3 3
v 1 3 -3
v 1 3 -4
v 1 4 4
v 1 4 3
v 1 4 -3
v 1 4 -4
v 2 0 3
v 2 0 2
v 2 0 1
v 2 0 -3
v 2 1 4
v 2 1 3
v 2 1 -0
v 2 1 -2
v 2 1 -3
v 2 1 -4
v 2 2 4
v 2 2 3
v 2 2 2
v 2 2 1
v 2 2 -0
v 2 2 -2
v 2 2 -4
v 2 3 4
v 2 3 3
v 2 3 2
v 2 3 -0
v 2 3 -1
v 2 3 -2
v 2 3 -3
v 2 4 3
v 2 4 2
v 2 4 -0
v 2 4 -1
v 2 4 -3
v -2 1 4
v -2 3 4
v -1 0 4
v -1 1 4
v -1 2 4
v -1 3 4
v -1 4 4
v 0 1 4
v 0 2 4
v 0 3 4
v 0 4 4
v 1 0 4
v 1 1 4
v 1 2 4
v 1 3 4
v 1 4 4
v 2 1 4
v 2 2 4
v 2 3 4
v -2 0 3
v -2 1 3
v -2 3 3
v -2 4 3
v -1 0 3
v -1 1 3
v -1 3 3
v -1 4 3
v 1 0 3
v 1 1 3
v 1 3 3
v 1 4 3
v 2 0 3
v 2 1 3
v 2 3 3
v 2 4 3
v -2 2 -2
v -2 3 -2
v -1 0 -2
v -1 1 -2
v -1 2 -2
v -1 3 -2
v -1 4 -2
v 0 2 -2
v 0 3 -2
v 0 4 -2
v 1 0 -2
v 1 1 -2
v 2 2 -2
v 2 3 -2
v -2 0 -3
v -2 1 -3
v -2 3 -3
v -2 4 -3
v -1 0 -3
v -1 1 -3
v -1 2 -3
v -1 3 -3
v -1 4 -3
v 0 2 -3
v 0 3 -3
v 1 0 -3
v 1 1 -3
v 1 2 -3
v 1 3 -3
v 1 4 -3
v 2 0 -3
v 2 1 -3
v 2 3 -3
v 2 4 -3
v -2 1 -4
v -2 2 -4
v -1 1 -4
v -1 2 -4
v 0 3 -4
v 0 4 -4
v 1 1 -4
v 1 2 -4
v 1 3 -4
v 1 4 -4
v 2 1 -4
v 2 2 -4
v -1 0 4
v 1 0 4
v -2 0 3
v -1 0 3
v 1 0 3
v 2 0 3
v 1 0 2
v 2 0 2
v 1 0 1
v 2 0 1
v -2 0 -1
v -1 0 -1
v -2 0 -2
v -1 0 -2
v 1 0 -2
v -2 0 -3
v -1 0 -3
v 1 0 -3
v 2 0 -3
v -2 1 4
v -1 1 4
v 1 1 4
v 2 1 4
v -2 1 3
v -1 1 3
v 1 1 3
v 2 1 3
v -1 1 -2
v 1 1 -2
v -2 1 -3
v -1 1 -3
v 1 1 -3
v 2 1 -3
v -2 1 -4
v -1 1 -4
v 1 1 -4
v 2 1 -4
v -2 3 -2
v -1 3 -2
v 0 3 -2
v 2 3 -2
v -2 3 -3
v -1 3 -3
v 0 3 -3
v 1 3 -3
v 2 3 -3
v 0 3 -4
v 1 3 -4
v -2 2 -2
v -1 2 -2
v 0 2 -2
v 2 2 -2
v -2 2 -3
v -1 2 -3
v 0 2 -3
v 1 2 -3
v -2 2 -4
v -1 2 -4
v 1 2 -4
v 2 2 -4
v -2 3 4
v -1 3 4
v 1 3 4
v 2 3 4
v -2 3 3
v -1 3 3
v 1 3 3
v 2 3 3
v -1 3 -2
v 0 3 -2
v -1 3 -3
v 0 3 -3
v -1 4 4
v 0 4 4
v 1 4 4
v -2 4 3
v -1 4 3
v 1 4 3
v 2 4 3
v -2 4 2
v -1 4 2
v 0 4 2
v 2 4 2
v -1 4 1
v 0 4 1
v -1 4 -0
v 0 4 -0
v 1 4 -0
v 2 4 -0
v -2 4 -1
v -1 4 -1
v 1 4 -1
v 2 4 -1
v -1 4 -2
v 0 4 -2
v -2 4 -3
v -1 4 -3
v 1 4 -3
v 2 4 -3
v 0 4 -4
v 1 4 -4

# faces
f 6/1/1 2/1/1 1/1/1
f 7/1/1 2/1/1 6/1/1
f 8/1/1 2/1/1 7/1/1
f 9/4/1 3/4/1 2/4/1
f 9/1/1 2/1/1 8/1/1
f 10/1/1 4/1/1 3/1/1
f 10/4/1 3/4/1 9/4/1
f 11/1/1 4/1/1 10/1/1
f 13/4/1 8/4/1 7/4/1
f 13/1/1 6/1/1 5/1/1
f 13/1/1 7/1/1 6/1/1
f 14/1/1 9/1/1 8/1/1
f 14/4/1 8/4/1 13/4/1
f 14/1/1 11/1/1 10/1/1
f 14/1/1 10/1/1 9/1/1
f 15/1/1 11/1/1 14/1/1
f 16/4/1 12/4/1 11/4/1
f 16/1/1 11/1/1 15/1/1
f 17/4/1 12/4/1 16/4/1
f 18/1/1 13/1/1 5/1/1
f 18/1/1 15/1/1 14/1/1
f 18/1/1 14/1/1 13/1/1
f 19/1/1 15/1/1 18/1/1
f 20/1/1 15/1/1 19/1/1
f 21/1/1 15/1/1 20/1/1
f 22/1/1 15/1/1 21/1/1
f 24/4/1 20/4/1 19/4/1
f 25/1/1 21/1/1 20/1/1
f 25/4/1 20/4/1 24/4/1
f 26/4/1 23/4/1 22/4/1
f 26/1/1 21/1/1 25/1/1
f 26/4/1 22/4/1 21/4/1
f 27/4/1 23/4/1 26/4/1
f 30/1/1 29/1/1 28/1/1
f 31/1/1 29/1/1 30/1/1
f 36/1/1 33/1/1 32/1/1
f 37/1/1 33/1/1 36/1/1
f 38/1/1 35/1/1 34/1/1
f 39/1/1 35/1/1 38/1/1
f 43/1/1 41/1/1 40/1/1
f 43/1/1 42/1/1 41/1/1
f 44/1/1 42/1/1 43/1/1
f 47/1/1 46/1/1 45/1/1
f 48/1/1 46/1/1 47/1/1
f 50/1/1 49/1/1 48/1/1
f 51/1/1 49/1/1 50/1/1
f 52/1/2 53/1/2 54/1/2
f 54/1/2 53/1/2 55/1/2
f 55/4/2 56/4/2 57/4/2
f 57/4/2 56/4/2 58/4/2
f 59/4/2 60/4/2 61/4/2
f 61/4/2 60/4/2 62/4/2
f 63/1/2 64/1/2 65/1/2
f 65/1/2 64/1/2 66/1/2
f 67/1/2 68/1/2 69/1/2
f 69/1/2 68/1/2 70/1/2
f 71/4/2 72/4/2 75/4/2
f 75/4/2 72/4/2 76/4/2
f 73/1/2 74/1/2 77/1/2
f 77/1/2 74/1/2 78/1/2
f 79/1/2 80/1/2 84/1/2
f 81/1/2 82/1/2 85/1/2
f 85/1/2 82/1/2 86/1/2
f 86/1/2 82/1/2 87/1/2
f 83/1/2 84/1/2 89/1/2
f 84/1/2 80/1/2 90/1/2
f 89/1/2 84/1/2 90/1/2
f 80/4/2 81/4/2 91/4/2
f 90/1/2 80/1/2 91/1/2
f 81/1/2 85/1/2 92/1/2
f 91/4/2 81/4/2 92/4/2
f 85/4/2 86/4/2 93/4/2
f 92/1/2 85/1/2 93/1/2
f 87/1/2 88/1/2 94/1/2
f 93/4/2 86/4/2 94/4/2
f 86/1/2 87/1/2 94/1/2
f 94/1/2 88/1/2 95/1/2
f 89/4/2 90/4/2 96/4/2
f 92/1/2 93/1/2 97/1/2
f 96/4/2 90/4/2 97/4/2
f 90/1/2 91/1/2 97/1/2
f 93/1/2 94/1/2 97/1/2
f 91/1/2 92/1/2 97/1/2
f 97/1/2 94/1/2 98/1/2
f 98/1/2 94/1/2 99/1/2
f 99/1/2 94/1/2 100/1/2
f 100/1/2 94/1/2 101/1/2
f 97/4/2 98/4/2 103/4/2
f 98/1/2 99/1/2 104/1/2
f 103/4/2 98/4/2 104/4/2
f 99/4/2 100/4/2 105/4/2
f 104/1/2 99/1/2 105/1/2
f 101/1/2 102/1/2 106/1/2
f 105/4/2 100/4/2 106/4/2
f 100/1/2 101/1/2 106/1/2
f 106/1/2 102/1/2 107/1/2
f 111/1/3 109/1/3 108/1/3
f 112/1/3 109/1/3 111/1/3
f 113/1/3 109/1/3 112/1/3
f 115/1/3 111/1/3 110/1/3
f 115/2/3 112/2/3 111/2/3
f 116/3/3 113/3/3 112/3/3
f 116/2/3 112/2/3 115/2/3
f 117/1/3 114/1/3 113/1/3
f 117/3/3 113/3/3 116/3/3
f 118/1/3 114/1/3 117/1/3
f 119/1/3 115/1/3 110/1/3
f 120/3/3 116/3/3 115/3/3
f 120/1/3 115/1/3 119/1/3
f 121/2/3 117/2/3 116/2/3
f 121/3/3 116/3/3 120/3/3
f 122/4/3 118/4/3 117/4/3
f 122/2/3 117/2/3 121/2/3
f 123/4/3 118/4/3 122/4/3
f 124/1/3 121/1/3 120/1/3
f 125/4/3 122/4/3 121/4/3
f 125/1/3 121/1/3 124/1/3
f 126/4/3 122/4/3 125/4/3
f 131/1/3 128/1/3 127/1/3
f 132/1/3 128/1/3 131/1/3
f 133/4/3 130/4/3 129/4/3
f 134/4/3 130/4/3 133/4/3
f 139/1/3 136/1/3 135/1/3
f 140/1/3 136/1/3 139/1/3
f 141/4/3 138/4/3 137/4/3
f 142/4/3 138/4/3 141/4/3
f 143/1/4 144/1/4 147/1/4
f 147/1/4 144/1/4 148/1/4
f 148/1/4 149/1/4 151/1/4
f 151/1/4 149/1/4 152/1/4
f 145/1/4 146/1/4 153/1/4
f 153/1/4 146/1/4 154/1/4
f 150/1/4 151/1/4 155/1/4
f 155/1/4 151/1/4 156/1/4
f 157/1/4 158/1/4 161/1/4
f 161/1/4 158/1/4 162/1/4
f 159/4/4 160/4/4 164/4/4
f 164/4/4 160/4/4 165/4/4
f 162/1/4 163/1/4 166/1/4
f 163/1/4 164/1/4 166/1/4
f 166/1/4 164/1/4 167/1/4
f 162/1/4 166/1/4 169/1/4
f 169/1/4 166/1/4 170/1/4
f 168/1/4 169/1/4 173/1/4
f 173/1/4 169/1/4 174/1/4
f 171/1/4 172/1/4 175/1/4
f 175/1/4 172/1/4 176/1/4
f 177/4/4 178/4/4 179/4/4
f 179/4/4 178/4/4 180/4/4
f 181/1/4 182/1/4 185/1/4
f 185/1/4 182/1/4 186/1/4
f 183/1/4 184/1/4 187/1/4
f 187/1/4 184/1/4 188/1/4
f 192/1/5 190/1/5 189/1/5
f 193/1/5 190/1/5 192/1/5
f 195/1/5 192/1/5 191/1/5
f 195/1/5 194/1/5 193/1/5
f 195/1/5 193/1/5 192/1/5
f 196/1/5 194/1/5 195/1/5
f 197/1/5 195/1/5 191/1/5
f 197/4/5 196/4/5 195/4/5
f 198/4/5 196/4/5 197/4/5
f 199/1/5 197/1/5 191/1/5
f 199/1/5 198/1/5 197/1/5
f 200/1/5 198/1/5 199/1/5
f 201/4/5 200/4/5 199/4/5
f 202/1/5 198/1/5 200/1/5
f 202/4/5 200/4/5 201/4/5
f 203/1/5 198/1/5 202/1/5
f 204/1/5 202/1/5 201/1/5
f 205/1/5 202/1/5 204/1/5
f 206/1/5 198/1/5 203/1/5
f 207/1/5 198/1/5 206/1/5
f 212/1/5 209/1/5 208/1/5
f 213/1/5 209/1/5 212/1/5
f 214/1/5 211/1/5 210/1/5
f 215/1/5 211/1/5 214/1/5
f 219/1/5 217/1/5 216/1/5
f 220/1/5 217/1/5 219/1/5
f 222/4/5 219/4/5 218/4/5
f 223/4/5 219/4/5 222/4/5
f 224/1/5 221/1/5 220/1/5
f 225/1/5 221/1/5 224/1/5
f 230/4/5 227/4/5 226/4/5
f 231/4/5 227/4/5 230/4/5
f 232/1/5 229/1/5 228/1/5
f 233/1/5 229/1/5 232/1/5
f 234/1/5 229/1/5 233/1/5
f 235/1/5 233/1/5 232/1/5
f 236/1/5 233/1/5 235/1/5
f 237/1/6 238/1/6 241/1/6
f 241/1/6 238/1/6 242/1/6
f 239/1/6 240/1/6 243/1/6
f 243/1/6 240/1/6 244/1/6
f 241/4/6 242/4/6 245/4/6
f 245/4/6 242/4/6 246/4/6
f 244/1/6 240/1/6 247/1/6
f 247/1/6 240/1/6 248/1/6
f 249/1/6 250/1/6 253/1/6
f 253/1/6 250/1/6 254/1/6
f 251/4/6 252/4/6 255/4/6
f 255/4/6 252/4/6 256/4/6
f 257/1/6 258/1/6 259/1/6
f 259/1/6 258/1/6 260/1/6
f 261/1/6 262/1/6 265/1/6
f 262/4/6 263/4/6 266/4/6
f 264/4/6 265/4/6 268/4/6
f 265/1/6 262/1/6 269/1/6
f 268/4/6 265/4/6 269/4/6
f 266/4/6 267/4/6 270/4/6
f 269/1/6 262/1/6 270/1/6
f 262/4/6 266/4/6 270/4/6
f 270/4/6 267/4/6 271/4/6
f 268/1/6 269/1/6 272/1/6
f 269/1/6 270/1/6 272/1/6
f 270/1/6 271/1/6 272/1/6
f 272/1/6 271/1/6 273/1/6
f 268/1/6 272/1/6 274/1/6
f 272/4/6 273/4/6 274/4/6
f 273/1/6 271/1/6 275/1/6
f 274/4/6 273/4/6 275/4/6
f 275/1/6 271/1/6 276/1/6
f 276/1/6 271/1/6 277/1/6
f 268/1/6 274/1/6 278/1/6
f 274/1/6 275/1/6 278/1/6
f 275/1/6 276/1/6 278/1/6
f 278/1/6 276/1/6 279/1/6
f 276/4/6 277/4/6 280/4/6
f 279/1/6 276/1/6 280/1/6
f 280/4/6 277/4/6 281/4/6
f 278/4/6 279/4/6 282/4/6
f 279/1/6 280/1/6 282/1/6
f 280/1/6 281/1/6 282/1/6
f 282/1/6 281/1/6 283/1/6
f 278/4/6 282/4/6 284/4/6
f 284/4/6 282/4/6 285/4/6
f 283/1/6 281/1/6 286/1/6
f 286/1/6 281/1/6 287/1/6
f 283/1/6 286/1/6 288/1/6
f 288/1/6 286/1/6 289/1/6
