# MagicaVoxel @ Ephtracy

# material
mtllib Chest_Closed.mtl
usemtl palette

# normals
vn -1 0 0
vn 1 0 0
vn 0 0 1
vn 0 0 -1
vn 0 -1 0
vn 0 1 0

# texcoords
vt 0.943359 0.5
vt 0.947266 0.5
vt 0.951172 0.5

# verts
v -5.5 2 3
v -5.5 2 -3
v -5.5 3 3
v -5.5 3 -3
v -4.5 0 3
v -4.5 0 -0
v -4.5 0 -1
v -4.5 0 -3
v -4.5 1 2
v -4.5 1 1
v -4.5 1 -0
v -4.5 1 -1
v -4.5 2 4
v -4.5 2 3
v -4.5 2 2
v -4.5 2 1
v -4.5 2 -3
v -4.5 2 -4
v -4.5 3 4
v -4.5 3 3
v -4.5 3 -1
v -4.5 3 -2
v -4.5 3 -3
v -4.5 3 -4
v -4.5 4 1
v -4.5 4 -0
v -4.5 4 -1
v -4.5 4 -2
v -4.5 5 3
v -4.5 5 1
v -4.5 5 -0
v -4.5 5 -3
v -3.5 0 4
v -3.5 0 3
v -3.5 0 -3
v -3.5 0 -4
v -3.5 2 4
v -3.5 2 3
v -3.5 2 -3
v -3.5 2 -4
v -3.5 3 4
v -3.5 3 3
v -3.5 3 -3
v -3.5 3 -4
v -3.5 5 4
v -3.5 5 3
v -3.5 5 1
v -3.5 5 -0
v -3.5 5 -3
v -3.5 5 -4
v -3.5 6 3
v -3.5 6 -3
v -1.5 1 -3
v -1.5 1 -4
v -1.5 2 -3
v -1.5 2 -4
v -1.5 3 -3
v -1.5 3 -4
v -1.5 4 -3
v -1.5 4 -4
v 0.5 2 -3
v 0.5 2 -4
v 0.5 3 -3
v 0.5 3 -4
v 2.5 0 4
v 2.5 0 3
v 2.5 0 -3
v 2.5 0 -4
v 2.5 2 4
v 2.5 2 3
v 2.5 2 -3
v 2.5 2 -4
v 2.5 3 4
v 2.5 3 3
v 2.5 3 -3
v 2.5 3 -4
v 2.5 5 4
v 2.5 5 3
v 2.5 5 -0
v 2.5 5 -1
v 2.5 5 -3
v 2.5 5 -4
v 2.5 6 3
v 2.5 6 -3
v -2.5 0 4
v -2.5 0 3
v -2.5 0 -3
v -2.5 0 -4
v -2.5 2 4
v -2.5 2 3
v -2.5 2 -3
v -2.5 2 -4
v -2.5 3 4
v -2.5 3 3
v -2.5 3 -3
v -2.5 3 -4
v -2.5 4 -3
v -2.5 5 4
v -2.5 5 3
v -2.5 5 2
v -2.5 5 1
v -2.5 5 -2
v -2.5 5 -3
v -2.5 5 -4
v -2.5 6 3
v -2.5 6 -3
v -0.5 2 -3
v -0.5 2 -4
v -0.5 3 -3
v -0.5 3 -4
v 1.5 1 -3
v 1.5 1 -4
v 1.5 2 -3
v 1.5 2 -4
v 1.5 3 -3
v 1.5 3 -4
v 1.5 4 -3
v 1.5 4 -4
v 3.5 0 4
v 3.5 0 3
v 3.5 0 -3
v 3.5 0 -4
v 3.5 2 4
v 3.5 2 3
v 3.5 2 -3
v 3.5 2 -4
v 3.5 3 4
v 3.5 3 3
v 3.5 3 -3
v 3.5 3 -4
v 3.5 5 4
v 3.5 5 3
v 3.5 5 -1
v 3.5 5 -2
v 3.5 5 -3
v 3.5 5 -4
v 3.5 6 3
v 3.5 6 -3
v 4.5 0 3
v 4.5 0 -1
v 4.5 0 -2
v 4.5 0 -3
v 4.5 1 1
v 4.5 1 -0
v 4.5 1 -1
v 4.5 1 -2
v 4.5 2 4
v 4.5 2 3
v 4.5 2 1
v 4.5 2 -0
v 4.5 2 -3
v 4.5 2 -4
v 4.5 3 4
v 4.5 3 3
v 4.5 3 1
v 4.5 3 -0
v 4.5 3 -3
v 4.5 3 -4
v 4.5 4 1
v 4.5 4 -0
v 4.5 4 -1
v 4.5 4 -2
v 4.5 5 3
v 4.5 5 -1
v 4.5 5 -2
v 4.5 5 -3
v 5.5 2 3
v 5.5 2 -3
v 5.5 3 3
v 5.5 3 -3
v -4.5 2 4
v -4.5 3 4
v -3.5 0 4
v -3.5 2 4
v -3.5 3 4
v -3.5 5 4
v -2.5 0 4
v -2.5 2 4
v -2.5 3 4
v -2.5 5 4
v 2.5 0 4
v 2.5 2 4
v 2.5 3 4
v 2.5 5 4
v 3.5 0 4
v 3.5 2 4
v 3.5 3 4
v 3.5 5 4
v 4.5 2 4
v 4.5 3 4
v -5.5 2 3
v -5.5 3 3
v -4.5 0 3
v -4.5 2 3
v -4.5 3 3
v -4.5 5 3
v -3.5 0 3
v -3.5 2 3
v -3.5 3 3
v -3.5 5 3
v -3.5 6 3
v -2.5 0 3
v -2.5 2 3
v -2.5 3 3
v -2.5 5 3
v -2.5 6 3
v -0.5 4 3
v -0.5 5 3
v 0.5 0 3
v 0.5 1 3
v 0.5 4 3
v 0.5 5 3
v 1.5 0 3
v 1.5 1 3
v 2.5 0 3
v 2.5 2 3
v 2.5 3 3
v 2.5 5 3
v 2.5 6 3
v 3.5 0 3
v 3.5 2 3
v 3.5 3 3
v 3.5 5 3
v 3.5 6 3
v 4.5 0 3
v 4.5 2 3
v 4.5 3 3
v 4.5 5 3
v 5.5 2 3
v 5.5 3 3
v -5.5 2 -3
v -5.5 3 -3
v -4.5 0 -3
v -4.5 2 -3
v -4.5 3 -3
v -4.5 5 -3
v -3.5 0 -3
v -3.5 2 -3
v -3.5 3 -3
v -3.5 5 -3
v -3.5 6 -3
v -2.5 0 -3
v -2.5 2 -3
v -2.5 3 -3
v -2.5 4 -3
v -2.5 5 -3
v -2.5 6 -3
v -1.5 1 -3
v -1.5 2 -3
v -1.5 3 -3
v -1.5 4 -3
v -1.5 5 -3
v -0.5 2 -3
v -0.5 3 -3
v 0.5 2 -3
v 0.5 3 -3
v 1.5 1 -3
v 1.5 2 -3
v 1.5 3 -3
v 1.5 4 -3
v 2.5 0 -3
v 2.5 2 -3
v 2.5 3 -3
v 2.5 5 -3
v 2.5 6 -3
v 3.5 0 -3
v 3.5 2 -3
v 3.5 3 -3
v 3.5 5 -3
v 3.5 6 -3
v 4.5 0 -3
v 4.5 2 -3
v 4.5 3 -3
v 4.5 5 -3
v 5.5 2 -3
v 5.5 3 -3
v -4.5 2 -4
v -4.5 3 -4
v -3.5 0 -4
v -3.5 2 -4
v -3.5 3 -4
v -3.5 5 -4
v -2.5 0 -4
v -2.5 2 -4
v -2.5 3 -4
v -2.5 5 -4
v -1.5 1 -4
v -1.5 2 -4
v -1.5 3 -4
v -1.5 4 -4
v -0.5 2 -4
v -0.5 3 -4
v 0.5 2 -4
v 0.5 3 -4
v 1.5 1 -4
v 1.5 2 -4
v 1.5 3 -4
v 1.5 4 -4
v 2.5 0 -4
v 2.5 2 -4
v 2.5 3 -4
v 2.5 5 -4
v 3.5 0 -4
v 3.5 2 -4
v 3.5 3 -4
v 3.5 5 -4
v 4.5 2 -4
v 4.5 3 -4
v -3.5 0 4
v -2.5 0 4
v 2.5 0 4
v 3.5 0 4
v -4.5 0 3
v -3.5 0 3
v -2.5 0 3
v 0.5 0 3
v 1.5 0 3
v 2.5 0 3
v 3.5 0 3
v 4.5 0 3
v 0.5 0 2
v 1.5 0 2
v -4.5 0 -0
v -3.5 0 -0
v -4.5 0 -1
v -3.5 0 -1
v 3.5 0 -1
v 4.5 0 -1
v 3.5 0 -2
v 4.5 0 -2
v -4.5 0 -3
v -3.5 0 -3
v -2.5 0 -3
v 2.5 0 -3
v 3.5 0 -3
v 4.5 0 -3
v -3.5 0 -4
v -2.5 0 -4
v 2.5 0 -4
v 3.5 0 -4
v -1.5 1 -3
v 1.5 1 -3
v -1.5 1 -4
v 1.5 1 -4
v -4.5 2 4
v -3.5 2 4
v -2.5 2 4
v 2.5 2 4
v 3.5 2 4
v 4.5 2 4
v -5.5 2 3
v -4.5 2 3
v -3.5 2 3
v -2.5 2 3
v 2.5 2 3
v 3.5 2 3
v 4.5 2 3
v 5.5 2 3
v -4.5 2 2
v -4.5 2 1
v 4.5 2 1
v 4.5 2 -0
v -5.5 2 -3
v -4.5 2 -3
v -3.5 2 -3
v -2.5 2 -3
v -1.5 2 -3
v 1.5 2 -3
v 2.5 2 -3
v 3.5 2 -3
v 4.5 2 -3
v 5.5 2 -3
v -4.5 2 -4
v -3.5 2 -4
v -2.5 2 -4
v -1.5 2 -4
v 1.5 2 -4
v 2.5 2 -4
v 3.5 2 -4
v 4.5 2 -4
v -0.5 3 -3
v 0.5 3 -3
v -0.5 3 -4
v 0.5 3 -4
v -0.5 2 -3
v 0.5 2 -3
v -0.5 2 -4
v 0.5 2 -4
v -4.5 3 4
v -3.5 3 4
v -2.5 3 4
v 2.5 3 4
v 3.5 3 4
v 4.5 3 4
v -5.5 3 3
v -4.5 3 3
v -3.5 3 3
v -2.5 3 3
v 2.5 3 3
v 3.5 3 3
v 4.5 3 3
v 5.5 3 3
v 4.5 3 1
v 4.5 3 -0
v -4.5 3 -1
v -4.5 3 -2
v -5.5 3 -3
v -4.5 3 -3
v -3.5 3 -3
v -2.5 3 -3
v -1.5 3 -3
v 1.5 3 -3
v 2.5 3 -3
v 3.5 3 -3
v 4.5 3 -3
v 5.5 3 -3
v -4.5 3 -4
v -3.5 3 -4
v -2.5 3 -4
v -1.5 3 -4
v 1.5 3 -4
v 2.5 3 -4
v 3.5 3 -4
v 4.5 3 -4
v -1.5 4 -3
v 1.5 4 -3
v -1.5 4 -4
v 1.5 4 -4
v -3.5 5 4
v -2.5 5 4
v 2.5 5 4
v 3.5 5 4
v -4.5 5 3
v -3.5 5 3
v -2.5 5 3
v -0.5 5 3
v 0.5 5 3
v 2.5 5 3
v 3.5 5 3
v 4.5 5 3
v -2.5 5 2
v -0.5 5 2
v 0.5 5 2
v -4.5 5 1
v -3.5 5 1
v -2.5 5 1
v -0.5 5 1
v -4.5 5 -0
v -3.5 5 -0
v 0.5 5 -0
v 2.5 5 -0
v 0.5 5 -1
v 2.5 5 -1
v 3.5 5 -1
v 4.5 5 -1
v -2.5 5 -2
v -1.5 5 -2
v 3.5 5 -2
v 4.5 5 -2
v -4.5 5 -3
v -3.5 5 -3
v -2.5 5 -3
v -1.5 5 -3
v 2.5 5 -3
v 3.5 5 -3
v 4.5 5 -3
v -3.5 5 -4
v -2.5 5 -4
v 2.5 5 -4
v 3.5 5 -4
v -3.5 6 3
v -2.5 6 3
v 2.5 6 3
v 3.5 6 3
v -3.5 6 -3
v -2.5 6 -3
v 2.5 6 -3
v 3.5 6 -3

# faces
f 3/2/1 2/2/1 1/2/1
f 4/2/1 2/2/1 3/2/1
f 9/1/1 6/1/1 5/1/1
f 10/1/1 6/1/1 9/1/1
f 11/3/1 7/3/1 6/3/1
f 11/1/1 6/1/1 10/1/1
f 12/1/1 8/1/1 7/1/1
f 12/3/1 7/3/1 11/3/1
f 14/1/1 9/1/1 5/1/1
f 15/3/1 10/3/1 9/3/1
f 15/1/1 9/1/1 14/1/1
f 16/1/1 11/1/1 10/1/1
f 16/3/1 10/3/1 15/3/1
f 16/1/1 12/1/1 11/1/1
f 17/1/1 8/1/1 12/1/1
f 17/1/1 12/1/1 16/1/1
f 19/2/1 14/2/1 13/2/1
f 20/2/1 14/2/1 19/2/1
f 23/2/1 18/2/1 17/2/1
f 24/2/1 18/2/1 23/2/1
f 25/1/1 21/1/1 20/1/1
f 26/1/1 21/1/1 25/1/1
f 27/3/1 22/3/1 21/3/1
f 27/1/1 21/1/1 26/1/1
f 28/1/1 23/1/1 22/1/1
f 28/3/1 22/3/1 27/3/1
f 29/1/1 25/1/1 20/1/1
f 30/3/1 26/3/1 25/3/1
f 30/1/1 25/1/1 29/1/1
f 31/1/1 27/1/1 26/1/1
f 31/3/1 26/3/1 30/3/1
f 31/1/1 28/1/1 27/1/1
f 32/1/1 23/1/1 28/1/1
f 32/1/1 28/1/1 31/1/1
f 37/2/1 34/2/1 33/2/1
f 38/2/1 34/2/1 37/2/1
f 39/2/1 36/2/1 35/2/1
f 40/2/1 36/2/1 39/2/1
f 45/2/1 42/2/1 41/2/1
f 46/2/1 42/2/1 45/2/1
f 49/2/1 44/2/1 43/2/1
f 50/2/1 44/2/1 49/2/1
f 51/2/1 48/2/1 47/2/1
f 51/2/1 49/2/1 48/2/1
f 51/2/1 47/2/1 46/2/1
f 52/2/1 49/2/1 51/2/1
f 55/2/1 54/2/1 53/2/1
f 56/2/1 54/2/1 55/2/1
f 59/2/1 58/2/1 57/2/1
f 60/2/1 58/2/1 59/2/1
f 63/2/1 62/2/1 61/2/1
f 64/2/1 62/2/1 63/2/1
f 69/2/1 66/2/1 65/2/1
f 70/2/1 66/2/1 69/2/1
f 71/2/1 68/2/1 67/2/1
f 72/2/1 68/2/1 71/2/1
f 77/2/1 74/2/1 73/2/1
f 78/2/1 74/2/1 77/2/1
f 81/2/1 76/2/1 75/2/1
f 82/2/1 76/2/1 81/2/1
f 83/2/1 80/2/1 79/2/1
f 83/2/1 81/2/1 80/2/1
f 83/2/1 79/2/1 78/2/1
f 84/2/1 81/2/1 83/2/1
f 85/2/2 86/2/2 89/2/2
f 89/2/2 86/2/2 90/2/2
f 87/2/2 88/2/2 91/2/2
f 91/2/2 88/2/2 92/2/2
f 95/2/2 96/2/2 97/2/2
f 93/2/2 94/2/2 98/2/2
f 98/2/2 94/2/2 99/2/2
f 97/2/2 96/2/2 103/2/2
f 103/2/2 96/2/2 104/2/2
f 101/2/2 102/2/2 105/2/2
f 102/2/2 103/2/2 105/2/2
f 99/2/2 100/2/2 105/2/2
f 100/2/2 101/2/2 105/2/2
f 105/2/2 103/2/2 106/2/2
f 107/2/2 108/2/2 109/2/2
f 109/2/2 108/2/2 110/2/2
f 111/2/2 112/2/2 113/2/2
f 113/2/2 112/2/2 114/2/2
f 115/2/2 116/2/2 117/2/2
f 117/2/2 116/2/2 118/2/2
f 119/2/2 120/2/2 123/2/2
f 123/2/2 120/2/2 124/2/2
f 121/2/2 122/2/2 125/2/2
f 125/2/2 122/2/2 126/2/2
f 127/2/2 128/2/2 131/2/2
f 131/2/2 128/2/2 132/2/2
f 129/2/2 130/2/2 135/2/2
f 135/2/2 130/2/2 136/2/2
f 133/2/2 134/2/2 137/2/2
f 134/2/2 135/2/2 137/2/2
f 132/2/2 133/2/2 137/2/2
f 137/2/2 135/2/2 138/2/2
f 139/1/2 140/1/2 143/1/2
f 143/1/2 140/1/2 144/1/2
f 140/3/2 141/3/2 145/3/2
f 144/1/2 140/1/2 145/1/2
f 141/1/2 142/1/2 146/1/2
f 145/3/2 141/3/2 146/3/2
f 139/1/2 143/1/2 148/1/2
f 143/3/2 144/3/2 149/3/2
f 148/1/2 143/1/2 149/1/2
f 144/1/2 145/1/2 150/1/2
f 149/3/2 144/3/2 150/3/2
f 145/1/2 146/1/2 150/1/2
f 146/1/2 142/1/2 151/1/2
f 150/1/2 146/1/2 151/1/2
f 147/2/2 148/2/2 153/2/2
f 153/2/2 148/2/2 154/2/2
f 151/2/2 152/2/2 157/2/2
f 157/2/2 152/2/2 158/2/2
f 155/3/2 156/3/2 159/3/2
f 154/1/2 155/1/2 159/1/2
f 156/1/2 157/1/2 160/1/2
f 159/3/2 156/3/2 160/3/2
f 160/1/2 157/1/2 161/1/2
f 161/1/2 157/1/2 162/1/2
f 154/1/2 159/1/2 163/1/2
f 159/1/2 160/1/2 163/1/2
f 160/1/2 161/1/2 163/1/2
f 161/3/2 162/3/2 164/3/2
f 163/1/2 161/1/2 164/1/2
f 162/1/2 157/1/2 165/1/2
f 164/3/2 162/3/2 165/3/2
f 165/1/2 157/1/2 166/1/2
f 167/2/2 168/2/2 169/2/2
f 169/2/2 168/2/2 170/2/2
f 174/2/3 172/2/3 171/2/3
f 175/2/3 172/2/3 174/2/3
f 177/2/3 174/2/3 173/2/3
f 177/2/3 176/2/3 175/2/3
f 177/2/3 175/2/3 174/2/3
f 178/2/3 176/2/3 177/2/3
f 179/2/3 176/2/3 178/2/3
f 180/2/3 176/2/3 179/2/3
f 182/2/3 179/2/3 178/2/3
f 183/2/3 179/2/3 182/2/3
f 185/2/3 182/2/3 181/2/3
f 185/2/3 184/2/3 183/2/3
f 185/2/3 183/2/3 182/2/3
f 186/2/3 184/2/3 185/2/3
f 187/2/3 184/2/3 186/2/3
f 188/2/3 184/2/3 187/2/3
f 189/2/3 187/2/3 186/2/3
f 190/2/3 187/2/3 189/2/3
f 194/2/3 192/2/3 191/2/3
f 195/2/3 192/2/3 194/2/3
f 197/1/3 194/1/3 193/1/3
f 198/1/3 194/1/3 197/1/3
f 199/1/3 196/1/3 195/1/3
f 200/1/3 196/1/3 199/1/3
f 205/2/3 201/2/3 200/2/3
f 206/2/3 201/2/3 205/2/3
f 207/1/3 205/1/3 204/1/3
f 208/1/3 205/1/3 207/1/3
f 209/1/3 203/1/3 202/1/3
f 210/1/3 203/1/3 209/1/3
f 211/1/3 207/1/3 204/1/3
f 211/3/3 208/3/3 207/3/3
f 212/3/3 208/3/3 211/3/3
f 213/3/3 210/3/3 209/3/3
f 214/1/3 203/1/3 210/1/3
f 214/3/3 210/3/3 213/3/3
f 215/1/3 214/1/3 213/1/3
f 216/1/3 203/1/3 214/1/3
f 216/1/3 214/1/3 215/1/3
f 217/1/3 211/1/3 204/1/3
f 217/1/3 212/1/3 211/1/3
f 218/1/3 212/1/3 217/1/3
f 223/2/3 219/2/3 218/2/3
f 224/2/3 219/2/3 223/2/3
f 225/1/3 221/1/3 220/1/3
f 226/1/3 221/1/3 225/1/3
f 227/1/3 223/1/3 222/1/3
f 228/1/3 223/1/3 227/1/3
f 229/2/3 227/2/3 226/2/3
f 230/2/3 227/2/3 229/2/3
f 231/2/4 232/2/4 234/2/4
f 234/2/4 232/2/4 235/2/4
f 233/1/4 234/1/4 237/1/4
f 237/1/4 234/1/4 238/1/4
f 235/1/4 236/1/4 239/1/4
f 239/1/4 236/1/4 240/1/4
f 240/2/4 241/2/4 246/2/4
f 246/2/4 241/2/4 247/2/4
f 242/1/4 243/1/4 248/1/4
f 248/1/4 243/1/4 249/1/4
f 244/1/4 245/1/4 250/1/4
f 245/3/4 246/3/4 251/3/4
f 250/1/4 245/1/4 251/1/4
f 251/3/4 246/3/4 252/3/4
f 253/1/4 254/1/4 255/1/4
f 255/1/4 254/1/4 256/1/4
f 242/1/4 248/1/4 257/1/4
f 251/1/4 252/1/4 260/1/4
f 257/1/4 258/1/4 261/1/4
f 242/1/4 257/1/4 261/1/4
f 261/1/4 258/1/4 262/1/4
f 259/1/4 260/1/4 263/1/4
f 260/1/4 252/1/4 264/1/4
f 263/1/4 260/1/4 264/1/4
f 264/2/4 265/2/4 269/2/4
f 269/2/4 265/2/4 270/2/4
f 266/1/4 267/1/4 271/1/4
f 271/1/4 267/1/4 272/1/4
f 268/1/4 269/1/4 273/1/4
f 273/1/4 269/1/4 274/1/4
f 272/2/4 273/2/4 275/2/4
f 275/2/4 273/2/4 276/2/4
f 277/2/4 278/2/4 280/2/4
f 280/2/4 278/2/4 281/2/4
f 279/2/4 280/2/4 283/2/4
f 281/2/4 282/2/4 283/2/4
f 280/2/4 281/2/4 283/2/4
f 283/2/4 282/2/4 284/2/4
f 284/2/4 282/2/4 285/2/4
f 285/2/4 282/2/4 286/2/4
f 284/2/4 285/2/4 288/2/4
f 288/2/4 285/2/4 289/2/4
f 287/2/4 288/2/4 291/2/4
f 289/2/4 290/2/4 291/2/4
f 288/2/4 289/2/4 291/2/4
f 291/2/4 290/2/4 292/2/4
f 287/2/4 291/2/4 293/2/4
f 292/2/4 290/2/4 294/2/4
f 287/2/4 293/2/4 295/2/4
f 293/2/4 294/2/4 295/2/4
f 295/2/4 294/2/4 296/2/4
f 294/2/4 290/2/4 297/2/4
f 296/2/4 294/2/4 297/2/4
f 297/2/4 290/2/4 298/2/4
f 296/2/4 297/2/4 300/2/4
f 300/2/4 297/2/4 301/2/4
f 300/2/4 301/2/4 303/2/4
f 301/2/4 302/2/4 303/2/4
f 299/2/4 300/2/4 303/2/4
f 303/2/4 302/2/4 304/2/4
f 304/2/4 302/2/4 305/2/4
f 305/2/4 302/2/4 306/2/4
f 304/2/4 305/2/4 307/2/4
f 307/2/4 305/2/4 308/2/4
f 314/2/5 310/2/5 309/2/5
f 315/2/5 310/2/5 314/2/5
f 318/2/5 312/2/5 311/2/5
f 319/2/5 312/2/5 318/2/5
f 321/3/5 317/3/5 316/3/5
f 321/1/5 314/1/5 313/1/5
f 321/1/5 315/1/5 314/1/5
f 321/1/5 316/1/5 315/1/5
f 322/1/5 320/1/5 319/1/5
f 322/3/5 317/3/5 321/3/5
f 322/1/5 319/1/5 318/1/5
f 322/1/5 318/1/5 317/1/5
f 323/1/5 321/1/5 313/1/5
f 323/1/5 322/1/5 321/1/5
f 324/1/5 322/1/5 323/1/5
f 325/3/5 324/3/5 323/3/5
f 326/1/5 322/1/5 324/1/5
f 326/3/5 324/3/5 325/3/5
f 327/1/5 320/1/5 322/1/5
f 327/1/5 322/1/5 326/1/5
f 328/1/5 320/1/5 327/1/5
f 329/1/5 326/1/5 325/1/5
f 329/1/5 327/1/5 326/1/5
f 329/3/5 328/3/5 327/3/5
f 330/3/5 328/3/5 329/3/5
f 331/1/5 329/1/5 325/1/5
f 331/1/5 330/1/5 329/1/5
f 332/1/5 330/1/5 331/1/5
f 333/1/5 330/1/5 332/1/5
f 334/1/5 330/1/5 333/1/5
f 335/1/5 330/1/5 334/1/5
f 336/1/5 330/1/5 335/1/5
f 337/2/5 333/2/5 332/2/5
f 338/2/5 333/2/5 337/2/5
f 339/2/5 335/2/5 334/2/5
f 340/2/5 335/2/5 339/2/5
f 343/2/5 342/2/5 341/2/5
f 344/2/5 342/2/5 343/2/5
f 352/2/5 346/2/5 345/2/5
f 353/2/5 346/2/5 352/2/5
f 354/2/5 348/2/5 347/2/5
f 355/2/5 348/2/5 354/2/5
f 356/2/5 350/2/5 349/2/5
f 357/2/5 350/2/5 356/2/5
f 359/2/5 352/2/5 351/2/5
f 360/2/5 359/2/5 351/2/5
f 361/2/5 358/2/5 357/2/5
f 362/2/5 358/2/5 361/2/5
f 363/2/5 360/2/5 351/2/5
f 364/2/5 360/2/5 363/2/5
f 371/2/5 358/2/5 362/2/5
f 372/2/5 358/2/5 371/2/5
f 373/2/5 365/2/5 364/2/5
f 374/2/5 365/2/5 373/2/5
f 375/2/5 367/2/5 366/2/5
f 376/2/5 367/2/5 375/2/5
f 377/2/5 369/2/5 368/2/5
f 378/2/5 369/2/5 377/2/5
f 379/2/5 371/2/5 370/2/5
f 380/2/5 371/2/5 379/2/5
f 383/2/5 382/2/5 381/2/5
f 384/2/5 382/2/5 383/2/5
f 385/2/6 386/2/6 387/2/6
f 387/2/6 386/2/6 388/2/6
f 389/2/6 390/2/6 396/2/6
f 396/2/6 390/2/6 397/2/6
f 391/2/6 392/2/6 398/2/6
f 398/2/6 392/2/6 399/2/6
f 393/2/6 394/2/6 400/2/6
f 400/2/6 394/2/6 401/2/6
f 401/2/6 402/2/6 403/2/6
f 403/2/6 402/2/6 404/2/6
f 395/2/6 396/2/6 405/2/6
f 395/2/6 405/2/6 406/2/6
f 395/2/6 406/2/6 407/2/6
f 407/2/6 406/2/6 408/2/6
f 404/2/6 402/2/6 415/2/6
f 415/2/6 402/2/6 416/2/6
f 408/2/6 409/2/6 417/2/6
f 417/2/6 409/2/6 418/2/6
f 410/2/6 411/2/6 419/2/6
f 419/2/6 411/2/6 420/2/6
f 412/2/6 413/2/6 421/2/6
f 421/2/6 413/2/6 422/2/6
f 414/2/6 415/2/6 423/2/6
f 423/2/6 415/2/6 424/2/6
f 425/2/6 426/2/6 427/2/6
f 427/2/6 426/2/6 428/2/6
f 429/2/6 430/2/6 434/2/6
f 434/2/6 430/2/6 435/2/6
f 431/2/6 432/2/6 438/2/6
f 438/2/6 432/2/6 439/2/6
f 435/1/6 436/1/6 441/1/6
f 436/3/6 437/3/6 442/3/6
f 441/1/6 436/1/6 442/1/6
f 437/1/6 438/1/6 443/1/6
f 442/3/6 437/3/6 443/3/6
f 433/1/6 434/1/6 444/1/6
f 444/1/6 434/1/6 445/1/6
f 441/3/6 442/3/6 446/3/6
f 442/1/6 443/1/6 447/1/6
f 446/3/6 442/3/6 447/3/6
f 444/3/6 445/3/6 448/3/6
f 448/3/6 445/3/6 449/3/6
f 443/1/6 438/1/6 450/1/6
f 447/1/6 443/1/6 450/1/6
f 446/1/6 447/1/6 450/1/6
f 450/1/6 438/1/6 451/1/6
f 446/1/6 450/1/6 452/1/6
f 450/3/6 451/3/6 452/3/6
f 452/3/6 451/3/6 453/3/6
f 439/1/6 440/1/6 454/1/6
f 454/1/6 440/1/6 455/1/6
f 452/1/6 453/1/6 456/1/6
f 446/1/6 452/1/6 456/1/6
f 456/1/6 453/1/6 457/1/6
f 454/3/6 455/3/6 458/3/6
f 458/3/6 455/3/6 459/3/6
f 448/1/6 449/1/6 460/1/6
f 460/1/6 449/1/6 461/1/6
f 456/3/6 457/3/6 462/3/6
f 457/1/6 453/1/6 463/1/6
f 462/3/6 457/3/6 463/3/6
f 463/1/6 453/1/6 464/1/6
f 458/1/6 459/1/6 465/1/6
f 465/1/6 459/1/6 466/1/6
f 461/2/6 462/2/6 467/2/6
f 467/2/6 462/2/6 468/2/6
f 464/2/6 465/2/6 469/2/6
f 469/2/6 465/2/6 470/2/6
f 471/2/6 472/2/6 475/2/6
f 475/2/6 472/2/6 476/2/6
f 473/2/6 474/2/6 477/2/6
f 477/2/6 474/2/6 478/2/6
