# MagicaVoxel @ Ephtracy

# material
mtllib Tree01.mtl
usemtl palette

# normals
vn -1 0 0
vn 1 0 0
vn 0 0 1
vn 0 0 -1
vn 0 -1 0
vn 0 1 0

# texcoords
vt 0.970703 0.5
vt 0.974609 0.5
vt 0.978516 0.5

# verts
v -4 8 1.5
v -4 8 0.5
v -4 9 1.5
v -4 9 0.5
v -3 6 2.5
v -3 6 -1.5
v -3 7 3.5
v -3 7 2.5
v -3 8 1.5
v -3 8 0.5
v -3 9 1.5
v -3 9 0.5
v -3 10 3.5
v -3 10 2.5
v -3 11 2.5
v -3 11 -1.5
v -2 5 1.5
v -2 5 -2.5
v -2 6 3.5
v -2 6 2.5
v -2 6 1.5
v -2 6 -1.5
v -2 6 -2.5
v -2 6 -3.5
v -2 7 3.5
v -2 7 2.5
v -2 10 3.5
v -2 10 2.5
v -2 10 -1.5
v -2 10 -3.5
v -2 11 3.5
v -2 11 2.5
v -1 0 0.5
v -1 0 -1.5
v -1 1 0.5
v -1 1 -1.5
v -1 5 2.5
v -1 5 1.5
v -1 5 -2.5
v -1 5 -3.5
v -1 6 2.5
v -1 6 1.5
v -1 6 -2.5
v -1 6 -3.5
v 0 0 1.5
v 0 0 0.5
v 0 1 1.5
v 0 1 0.5
v 0 1 -1.5
v 0 5 0.5
v 0 5 -1.5
v 0 8 -3.5
v 0 8 -4.5
v 0 9 4.5
v 0 9 3.5
v 0 9 -3.5
v 0 9 -4.5
v 0 10 4.5
v 0 10 3.5
v 1 0 -1.5
v 1 0 -2.5
v 1 1 -1.5
v 1 1 -2.5
v 2 6 -3.5
v 2 6 -4.5
v 2 7 -3.5
v 2 7 -4.5
v 3 7 3.5
v 3 7 2.5
v 3 8 3.5
v 3 8 2.5
v 1 1 0.5
v 1 1 -0.5
v 1 2 0.5
v 1 2 -0.5
v 1 3 -0.5
v 1 3 -1.5
v 1 4 -0.5
v 1 4 -1.5
v 1 6 3.5
v 1 6 2.5
v 1 7 3.5
v 1 7 2.5
v 1 8 -3.5
v 1 8 -4.5
v 1 9 4.5
v 1 9 3.5
v 1 9 -3.5
v 1 9 -4.5
v 1 10 4.5
v 1 10 3.5
v 1 10 -0.5
v 1 10 -1.5
v 1 11 -0.5
v 1 11 -1.5
v 2 0 1.5
v 2 0 -0.5
v 2 0 -1.5
v 2 0 -2.5
v 2 1 1.5
v 2 1 -0.5
v 2 1 -1.5
v 2 1 -2.5
v 2 2 0.5
v 2 2 -0.5
v 2 3 -0.5
v 2 3 -1.5
v 2 4 -0.5
v 2 4 -1.5
v 2 5 0.5
v 2 5 -1.5
v 2 7 3.5
v 2 7 2.5
v 2 10 2.5
v 2 10 -0.5
v 2 11 3.5
v 2 11 -0.5
v 3 0 -0.5
v 3 0 -1.5
v 3 1 -0.5
v 3 1 -1.5
v 3 5 2.5
v 3 5 1.5
v 3 5 -2.5
v 3 5 -3.5
v 3 6 2.5
v 3 6 1.5
v 3 6 -2.5
v 3 6 -3.5
v 3 6 -4.5
v 3 7 -3.5
v 3 7 -4.5
v 3 8 0.5
v 3 8 -0.5
v 3 9 0.5
v 3 9 -0.5
v 3 9 -2.5
v 3 9 -3.5
v 3 10 -2.5
v 3 10 -3.5
v 4 5 1.5
v 4 5 -2.5
v 4 6 2.5
v 4 6 1.5
v 4 6 -2.5
v 4 6 -3.5
v 4 7 3.5
v 4 7 2.5
v 4 8 3.5
v 4 8 2.5
v 4 8 0.5
v 4 8 -0.5
v 4 9 0.5
v 4 9 -0.5
v 4 9 -2.5
v 4 9 -3.5
v 4 10 2.5
v 4 10 -2.5
v 0 9 4.5
v 0 10 4.5
v 1 9 4.5
v 1 10 4.5
v -3 7 3.5
v -3 10 3.5
v -2 6 3.5
v -2 7 3.5
v -2 10 3.5
v -2 11 3.5
v 0 9 3.5
v 0 10 3.5
v 1 6 3.5
v 1 7 3.5
v 1 9 3.5
v 1 10 3.5
v 2 7 3.5
v 2 11 3.5
v 3 7 3.5
v 3 8 3.5
v 4 7 3.5
v 4 8 3.5
v -3 6 2.5
v -3 7 2.5
v -3 10 2.5
v -3 11 2.5
v -2 6 2.5
v -2 7 2.5
v -2 10 2.5
v -2 11 2.5
v -1 5 2.5
v -1 6 2.5
v 1 6 2.5
v 1 7 2.5
v 2 7 2.5
v 2 10 2.5
v 3 5 2.5
v 3 6 2.5
v 3 7 2.5
v 3 8 2.5
v 4 6 2.5
v 4 7 2.5
v 4 8 2.5
v 4 10 2.5
v -4 8 1.5
v -4 9 1.5
v -3 8 1.5
v -3 9 1.5
v -2 5 1.5
v -2 6 1.5
v -1 5 1.5
v -1 6 1.5
v 0 0 1.5
v 0 1 1.5
v 2 0 1.5
v 2 1 1.5
v 3 5 1.5
v 3 6 1.5
v 4 5 1.5
v 4 6 1.5
v -1 0 0.5
v -1 1 0.5
v 0 0 0.5
v 0 1 0.5
v 0 5 0.5
v 1 1 0.5
v 1 2 0.5
v 2 2 0.5
v 2 5 0.5
v 1 1 -0.5
v 1 2 -0.5
v 2 0 -0.5
v 2 1 -0.5
v 2 2 -0.5
v 3 0 -0.5
v 3 1 -0.5
v 3 8 -0.5
v 3 9 -0.5
v 4 8 -0.5
v 4 9 -0.5
v -4 8 0.5
v -4 9 0.5
v -3 8 0.5
v -3 9 0.5
v 3 8 0.5
v 3 9 0.5
v 4 8 0.5
v 4 9 0.5
v 1 3 -0.5
v 1 4 -0.5
v 1 10 -0.5
v 1 11 -0.5
v 2 3 -0.5
v 2 4 -0.5
v 2 10 -0.5
v 2 11 -0.5
v -3 6 -1.5
v -3 11 -1.5
v -2 6 -1.5
v -2 10 -1.5
v -1 0 -1.5
v -1 1 -1.5
v 0 1 -1.5
v 0 5 -1.5
v 1 0 -1.5
v 1 1 -1.5
v 1 3 -1.5
v 1 4 -1.5
v 1 10 -1.5
v 1 11 -1.5
v 2 0 -1.5
v 2 1 -1.5
v 2 3 -1.5
v 2 4 -1.5
v 2 5 -1.5
v 3 0 -1.5
v 3 1 -1.5
v -2 5 -2.5
v -2 6 -2.5
v -1 5 -2.5
v -1 6 -2.5
v 1 0 -2.5
v 1 1 -2.5
v 2 0 -2.5
v 2 1 -2.5
v 3 5 -2.5
v 3 6 -2.5
v 3 9 -2.5
v 3 10 -2.5
v 4 5 -2.5
v 4 6 -2.5
v 4 9 -2.5
v 4 10 -2.5
v -2 6 -3.5
v -2 10 -3.5
v -1 5 -3.5
v -1 6 -3.5
v 0 8 -3.5
v 0 9 -3.5
v 1 8 -3.5
v 1 9 -3.5
v 2 6 -3.5
v 2 7 -3.5
v 3 5 -3.5
v 3 6 -3.5
v 3 7 -3.5
v 3 9 -3.5
v 3 10 -3.5
v 4 6 -3.5
v 4 9 -3.5
v 0 8 -4.5
v 0 9 -4.5
v 1 8 -4.5
v 1 9 -4.5
v 2 6 -4.5
v 2 7 -4.5
v 3 6 -4.5
v 3 7 -4.5
v 0 0 1.5
v 2 0 1.5
v -1 0 0.5
v 0 0 0.5
v 2 0 -0.5
v 3 0 -0.5
v -1 0 -1.5
v 1 0 -1.5
v 2 0 -1.5
v 3 0 -1.5
v 1 0 -2.5
v 2 0 -2.5
v 1 2 0.5
v 2 2 0.5
v 1 2 -0.5
v 2 2 -0.5
v 1 4 -0.5
v 2 4 -0.5
v 1 4 -1.5
v 2 4 -1.5
v -1 5 2.5
v 3 5 2.5
v -2 5 1.5
v -1 5 1.5
v 3 5 1.5
v 4 5 1.5
v 0 5 0.5
v 2 5 0.5
v 0 5 -1.5
v 2 5 -1.5
v -2 5 -2.5
v -1 5 -2.5
v 3 5 -2.5
v 4 5 -2.5
v -1 5 -3.5
v 3 5 -3.5
v -2 6 3.5
v 1 6 3.5
v -3 6 2.5
v -2 6 2.5
v -1 6 2.5
v 1 6 2.5
v 3 6 2.5
v 4 6 2.5
v -2 6 1.5
v -1 6 1.5
v 3 6 1.5
v 4 6 1.5
v -3 6 -1.5
v -2 6 -1.5
v -2 6 -2.5
v -1 6 -2.5
v 3 6 -2.5
v 4 6 -2.5
v -2 6 -3.5
v -1 6 -3.5
v 2 6 -3.5
v 3 6 -3.5
v 4 6 -3.5
v 2 6 -4.5
v 3 6 -4.5
v -3 7 3.5
v -2 7 3.5
v 1 7 3.5
v 2 7 3.5
v 3 7 3.5
v 4 7 3.5
v -3 7 2.5
v -2 7 2.5
v 1 7 2.5
v 2 7 2.5
v 3 7 2.5
v 4 7 2.5
v -4 8 1.5
v -3 8 1.5
v -4 8 0.5
v -3 8 0.5
v 0 8 -3.5
v 1 8 -3.5
v 0 8 -4.5
v 1 8 -4.5
v 0 9 4.5
v 1 9 4.5
v 0 9 3.5
v 1 9 3.5
v 3 9 0.5
v 4 9 0.5
v 3 9 -0.5
v 4 9 -0.5
v 0 1 1.5
v 2 1 1.5
v -1 1 0.5
v 0 1 0.5
v 1 1 0.5
v 1 1 -0.5
v 2 1 -0.5
v 3 1 -0.5
v -1 1 -1.5
v 0 1 -1.5
v 1 1 -1.5
v 2 1 -1.5
v 3 1 -1.5
v 1 1 -2.5
v 2 1 -2.5
v 1 3 -0.5
v 2 3 -0.5
v 1 3 -1.5
v 2 3 -1.5
v 2 7 -3.5
v 3 7 -3.5
v 2 7 -4.5
v 3 7 -4.5
v 3 8 3.5
v 4 8 3.5
v 3 8 2.5
v 4 8 2.5
v 3 8 0.5
v 4 8 0.5
v 3 8 -0.5
v 4 8 -0.5
v -4 9 1.5
v -3 9 1.5
v -4 9 0.5
v -3 9 0.5
v 3 9 -2.5
v 4 9 -2.5
v 0 9 -3.5
v 1 9 -3.5
v 3 9 -3.5
v 4 9 -3.5
v 0 9 -4.5
v 1 9 -4.5
v 0 10 4.5
v 1 10 4.5
v -3 10 3.5
v -2 10 3.5
v 0 10 3.5
v 1 10 3.5
v -3 10 2.5
v -2 10 2.5
v 2 10 2.5
v 4 10 2.5
v 1 10 -0.5
v 2 10 -0.5
v -2 10 -1.5
v 1 10 -1.5
v 3 10 -2.5
v 4 10 -2.5
v -2 10 -3.5
v 3 10 -3.5
v -2 11 3.5
v 2 11 3.5
v -3 11 2.5
v -2 11 2.5
v 1 11 -0.5
v 2 11 -0.5
v -3 11 -1.5
v 1 11 -1.5

# faces
f 3/3/1 2/3/1 1/3/1
f 4/3/1 2/3/1 3/3/1
f 8/2/1 6/2/1 5/2/1
f 9/2/1 6/2/1 8/2/1
f 9/2/1 8/2/1 7/2/1
f 10/2/1 6/2/1 9/2/1
f 11/2/1 9/2/1 7/2/1
f 12/2/1 6/2/1 10/2/1
f 13/2/1 11/2/1 7/2/1
f 13/2/1 12/2/1 11/2/1
f 14/2/1 12/2/1 13/2/1
f 15/2/1 12/2/1 14/2/1
f 16/2/1 6/2/1 12/2/1
f 16/2/1 12/2/1 15/2/1
f 21/2/1 18/2/1 17/2/1
f 22/2/1 18/2/1 21/2/1
f 23/2/1 18/2/1 22/2/1
f 25/2/1 20/2/1 19/2/1
f 26/2/1 20/2/1 25/2/1
f 29/2/1 24/2/1 23/2/1
f 29/2/1 23/2/1 22/2/1
f 30/2/1 24/2/1 29/2/1
f 31/2/1 28/2/1 27/2/1
f 32/2/1 28/2/1 31/2/1
f 35/1/1 34/1/1 33/1/1
f 36/1/1 34/1/1 35/1/1
f 41/2/1 38/2/1 37/2/1
f 42/2/1 38/2/1 41/2/1
f 43/2/1 40/2/1 39/2/1
f 44/2/1 40/2/1 43/2/1
f 47/1/1 46/1/1 45/1/1
f 48/1/1 46/1/1 47/1/1
f 50/1/1 49/1/1 48/1/1
f 51/1/1 49/1/1 50/1/1
f 56/3/1 53/3/1 52/3/1
f 57/3/1 53/3/1 56/3/1
f 58/3/1 55/3/1 54/3/1
f 59/3/1 55/3/1 58/3/1
f 62/1/1 61/1/1 60/1/1
f 63/1/1 61/1/1 62/1/1
f 66/3/1 65/3/1 64/3/1
f 67/3/1 65/3/1 66/3/1
f 70/3/1 69/3/1 68/3/1
f 71/3/1 69/3/1 70/3/1
f 72/1/2 73/1/2 74/1/2
f 74/1/2 73/1/2 75/1/2
f 76/1/2 77/1/2 78/1/2
f 78/1/2 77/1/2 79/1/2
f 80/2/2 81/2/2 82/2/2
f 82/2/2 81/2/2 83/2/2
f 84/3/2 85/3/2 88/3/2
f 88/3/2 85/3/2 89/3/2
f 86/3/2 87/3/2 90/3/2
f 90/3/2 87/3/2 91/3/2
f 92/2/2 93/2/2 94/2/2
f 94/2/2 93/2/2 95/2/2
f 96/1/2 97/1/2 100/1/2
f 100/1/2 97/1/2 101/1/2
f 98/1/2 99/1/2 102/1/2
f 102/1/2 99/1/2 103/1/2
f 101/1/2 102/1/2 105/1/2
f 105/1/2 102/1/2 106/1/2
f 104/1/2 105/1/2 106/1/2
f 106/1/2 102/1/2 107/1/2
f 104/1/2 106/1/2 108/1/2
f 104/1/2 108/1/2 110/1/2
f 108/1/2 109/1/2 110/1/2
f 110/1/2 109/1/2 111/1/2
f 112/2/2 113/2/2 114/2/2
f 112/2/2 114/2/2 116/2/2
f 114/2/2 115/2/2 116/2/2
f 116/2/2 115/2/2 117/2/2
f 118/1/2 119/1/2 120/1/2
f 120/1/2 119/1/2 121/1/2
f 122/2/2 123/2/2 126/2/2
f 126/2/2 123/2/2 127/2/2
f 124/2/2 125/2/2 128/2/2
f 128/2/2 125/2/2 129/2/2
f 129/3/2 130/3/2 131/3/2
f 131/3/2 130/3/2 132/3/2
f 133/2/2 134/2/2 135/2/2
f 135/2/2 134/2/2 136/2/2
f 137/2/2 138/2/2 139/2/2
f 139/2/2 138/2/2 140/2/2
f 141/2/2 142/2/2 144/2/2
f 144/2/2 142/2/2 145/2/2
f 143/2/2 144/2/2 148/2/2
f 145/2/2 146/2/2 148/2/2
f 144/2/2 145/2/2 148/2/2
f 147/3/2 148/3/2 149/3/2
f 148/2/2 146/2/2 150/2/2
f 149/3/2 148/3/2 150/3/2
f 150/2/2 146/2/2 151/2/2
f 151/2/2 146/2/2 152/2/2
f 150/2/2 151/2/2 153/2/2
f 152/2/2 146/2/2 154/2/2
f 154/2/2 146/2/2 155/2/2
f 155/2/2 146/2/2 156/2/2
f 150/2/2 153/2/2 157/2/2
f 153/2/2 154/2/2 157/2/2
f 154/2/2 155/2/2 157/2/2
f 157/2/2 155/2/2 158/2/2
f 161/3/3 160/3/3 159/3/3
f 162/3/3 160/3/3 161/3/3
f 166/2/3 164/2/3 163/2/3
f 167/2/3 164/2/3 166/2/3
f 169/2/3 166/2/3 165/2/3
f 169/2/3 168/2/3 167/2/3
f 169/2/3 167/2/3 166/2/3
f 170/2/3 168/2/3 169/2/3
f 171/2/3 169/2/3 165/2/3
f 172/2/3 169/2/3 171/2/3
f 173/2/3 169/2/3 172/2/3
f 174/2/3 168/2/3 170/2/3
f 175/2/3 173/2/3 172/2/3
f 175/2/3 174/2/3 173/2/3
f 176/2/3 168/2/3 174/2/3
f 176/2/3 174/2/3 175/2/3
f 179/3/3 178/3/3 177/3/3
f 180/3/3 178/3/3 179/3/3
f 185/2/3 182/2/3 181/2/3
f 186/2/3 182/2/3 185/2/3
f 187/2/3 184/2/3 183/2/3
f 188/2/3 184/2/3 187/2/3
f 191/2/3 190/2/3 189/2/3
f 193/2/3 192/2/3 191/2/3
f 195/2/3 191/2/3 189/2/3
f 195/2/3 194/2/3 193/2/3
f 195/2/3 193/2/3 191/2/3
f 196/2/3 194/2/3 195/2/3
f 197/2/3 194/2/3 196/2/3
f 198/2/3 194/2/3 197/2/3
f 199/2/3 197/2/3 196/2/3
f 200/2/3 197/2/3 199/2/3
f 201/2/3 194/2/3 198/2/3
f 202/2/3 194/2/3 201/2/3
f 205/3/3 204/3/3 203/3/3
f 206/3/3 204/3/3 205/3/3
f 209/2/3 208/2/3 207/2/3
f 210/2/3 208/2/3 209/2/3
f 213/1/3 212/1/3 211/1/3
f 214/1/3 212/1/3 213/1/3
f 217/2/3 216/2/3 215/2/3
f 218/2/3 216/2/3 217/2/3
f 221/1/3 220/1/3 219/1/3
f 222/1/3 220/1/3 221/1/3
f 224/1/3 223/1/3 222/1/3
f 225/1/3 223/1/3 224/1/3
f 226/1/3 223/1/3 225/1/3
f 227/1/3 223/1/3 226/1/3
f 231/1/3 229/1/3 228/1/3
f 232/1/3 229/1/3 231/1/3
f 233/1/3 231/1/3 230/1/3
f 234/1/3 231/1/3 233/1/3
f 237/2/3 236/2/3 235/2/3
f 238/2/3 236/2/3 237/2/3
f 239/3/4 240/3/4 241/3/4
f 241/3/4 240/3/4 242/3/4
f 243/2/4 244/2/4 245/2/4
f 245/2/4 244/2/4 246/2/4
f 247/1/4 248/1/4 251/1/4
f 251/1/4 248/1/4 252/1/4
f 249/2/4 250/2/4 253/2/4
f 253/2/4 250/2/4 254/2/4
f 255/2/4 256/2/4 257/2/4
f 257/2/4 256/2/4 258/2/4
f 259/1/4 260/1/4 261/1/4
f 259/1/4 261/1/4 263/1/4
f 261/1/4 262/1/4 263/1/4
f 263/1/4 262/1/4 264/1/4
f 264/1/4 262/1/4 265/1/4
f 265/1/4 262/1/4 266/1/4
f 258/2/4 256/2/4 267/2/4
f 267/2/4 256/2/4 268/2/4
f 264/1/4 265/1/4 270/1/4
f 270/1/4 265/1/4 271/1/4
f 266/1/4 262/1/4 272/1/4
f 272/1/4 262/1/4 273/1/4
f 269/1/4 270/1/4 274/1/4
f 274/1/4 270/1/4 275/1/4
f 276/2/4 277/2/4 278/2/4
f 278/2/4 277/2/4 279/2/4
f 280/1/4 281/1/4 282/1/4
f 282/1/4 281/1/4 283/1/4
f 284/2/4 285/2/4 288/2/4
f 288/2/4 285/2/4 289/2/4
f 286/2/4 287/2/4 290/2/4
f 290/2/4 287/2/4 291/2/4
f 292/2/4 293/2/4 295/2/4
f 295/2/4 293/2/4 296/2/4
f 294/2/4 295/2/4 296/2/4
f 296/2/4 293/2/4 297/2/4
f 294/2/4 296/2/4 298/2/4
f 297/2/4 293/2/4 299/2/4
f 294/2/4 298/2/4 300/2/4
f 298/2/4 299/2/4 300/2/4
f 300/2/4 299/2/4 301/2/4
f 294/2/4 300/2/4 302/2/4
f 302/2/4 300/2/4 303/2/4
f 301/2/4 299/2/4 304/2/4
f 299/2/4 293/2/4 305/2/4
f 304/2/4 299/2/4 305/2/4
f 305/2/4 293/2/4 306/2/4
f 303/2/4 304/2/4 307/2/4
f 304/2/4 305/2/4 307/2/4
f 307/2/4 305/2/4 308/2/4
f 309/3/4 310/3/4 311/3/4
f 311/3/4 310/3/4 312/3/4
f 313/3/4 314/3/4 315/3/4
f 315/3/4 314/3/4 316/3/4
f 320/1/5 318/1/5 317/1/5
f 321/1/5 318/1/5 320/1/5
f 321/1/5 320/1/5 319/1/5
f 323/1/5 321/1/5 319/1/5
f 323/1/5 322/1/5 321/1/5
f 324/1/5 322/1/5 323/1/5
f 325/1/5 322/1/5 324/1/5
f 326/1/5 322/1/5 325/1/5
f 327/1/5 325/1/5 324/1/5
f 328/1/5 325/1/5 327/1/5
f 331/1/5 330/1/5 329/1/5
f 332/1/5 330/1/5 331/1/5
f 335/1/5 334/1/5 333/1/5
f 336/1/5 334/1/5 335/1/5
f 340/2/5 338/2/5 337/2/5
f 341/2/5 338/2/5 340/2/5
f 343/2/5 340/2/5 339/2/5
f 343/2/5 342/2/5 341/2/5
f 343/2/5 341/2/5 340/2/5
f 344/2/5 342/2/5 343/2/5
f 345/2/5 343/2/5 339/2/5
f 346/2/5 342/2/5 344/2/5
f 347/2/5 345/2/5 339/2/5
f 347/2/5 346/2/5 345/2/5
f 348/2/5 346/2/5 347/2/5
f 349/2/5 342/2/5 346/2/5
f 349/2/5 346/2/5 348/2/5
f 350/2/5 342/2/5 349/2/5
f 351/2/5 349/2/5 348/2/5
f 352/2/5 349/2/5 351/2/5
f 356/2/5 354/2/5 353/2/5
f 357/2/5 354/2/5 356/2/5
f 358/2/5 354/2/5 357/2/5
f 361/2/5 356/2/5 355/2/5
f 361/2/5 357/2/5 356/2/5
f 362/2/5 357/2/5 361/2/5
f 363/2/5 360/2/5 359/2/5
f 364/2/5 360/2/5 363/2/5
f 365/2/5 361/2/5 355/2/5
f 366/2/5 361/2/5 365/2/5
f 371/2/5 368/2/5 367/2/5
f 372/2/5 368/2/5 371/2/5
f 374/2/5 370/2/5 369/2/5
f 375/2/5 370/2/5 374/2/5
f 376/3/5 374/3/5 373/3/5
f 377/3/5 374/3/5 376/3/5
f 384/2/5 379/2/5 378/2/5
f 385/2/5 379/2/5 384/2/5
f 386/2/5 381/2/5 380/2/5
f 387/2/5 381/2/5 386/2/5
f 388/3/5 383/3/5 382/3/5
f 389/3/5 383/3/5 388/3/5
f 392/3/5 391/3/5 390/3/5
f 393/3/5 391/3/5 392/3/5
f 396/3/5 395/3/5 394/3/5
f 397/3/5 395/3/5 396/3/5
f 400/3/5 399/3/5 398/3/5
f 401/3/5 399/3/5 400/3/5
f 404/2/5 403/2/5 402/2/5
f 405/2/5 403/2/5 404/2/5
f 406/1/6 407/1/6 409/1/6
f 409/1/6 407/1/6 410/1/6
f 410/1/6 407/1/6 411/1/6
f 411/1/6 407/1/6 412/1/6
f 408/1/6 409/1/6 414/1/6
f 414/1/6 409/1/6 415/1/6
f 412/1/6 413/1/6 417/1/6
f 417/1/6 413/1/6 418/1/6
f 416/1/6 417/1/6 419/1/6
f 419/1/6 417/1/6 420/1/6
f 421/1/6 422/1/6 423/1/6
f 423/1/6 422/1/6 424/1/6
f 425/3/6 426/3/6 427/3/6
f 427/3/6 426/3/6 428/3/6
f 429/3/6 430/3/6 431/3/6
f 431/3/6 430/3/6 432/3/6
f 433/2/6 434/2/6 435/2/6
f 435/2/6 434/2/6 436/2/6
f 437/3/6 438/3/6 439/3/6
f 439/3/6 438/3/6 440/3/6
f 441/2/6 442/2/6 445/2/6
f 445/2/6 442/2/6 446/2/6
f 443/3/6 444/3/6 447/3/6
f 447/3/6 444/3/6 448/3/6
f 449/3/6 450/3/6 453/3/6
f 453/3/6 450/3/6 454/3/6
f 451/2/6 452/2/6 455/2/6
f 455/2/6 452/2/6 456/2/6
f 457/2/6 458/2/6 460/2/6
f 459/2/6 460/2/6 462/2/6
f 460/2/6 458/2/6 463/2/6
f 461/2/6 462/2/6 463/2/6
f 462/2/6 460/2/6 463/2/6
f 463/2/6 458/2/6 464/2/6
f 461/2/6 463/2/6 465/2/6
f 465/2/6 463/2/6 466/2/6
f 467/2/6 468/2/6 470/2/6
f 470/2/6 468/2/6 471/2/6
f 469/2/6 470/2/6 471/2/6
f 471/2/6 468/2/6 472/2/6
f 469/2/6 471/2/6 473/2/6
f 473/2/6 471/2/6 474/2/6
