# MagicaVoxel @ Ephtracy

# material
mtllib SpawnThroneEnemy.mtl
usemtl palette

# normals
vn -1 0 0
vn 1 0 0
vn 0 0 1
vn 0 0 -1
vn 0 -1 0
vn 0 1 0

# texcoords
vt 0.939453 0.5
vt 0.943359 0.5
vt 0.978516 0.5
vt 0.986328 0.5
vt 0.990234 0.5
vt 0.994141 0.5

# verts
v -5 0 2
v -5 0 1
v -5 0 -0
v -5 0 -1
v -5 0 -2
v -5 1 2
v -5 1 1
v -5 1 -0
v -5 1 -1
v -5 1 -2
v -4 0 4
v -4 0 3
v -4 0 2
v -4 0 -2
v -4 0 -3
v -4 0 -4
v -4 1 4
v -4 1 3
v -4 1 2
v -4 1 1
v -4 1 -0
v -4 1 -1
v -4 1 -2
v -4 1 -3
v -4 1 -4
v -4 2 2
v -4 2 -2
v -3 1 3
v -3 1 2
v -3 1 -2
v -3 1 -3
v -3 2 3
v -3 2 2
v -3 2 -2
v -3 2 -3
v -2 0 5
v -2 0 4
v -2 0 -4
v -2 0 -5
v -2 1 5
v -2 1 4
v -2 1 3
v -2 1 -3
v -2 1 -4
v -2 1 -5
v -2 2 4
v -2 2 3
v -2 2 -3
v -2 2 -4
v 2 1 3
v 2 1 2
v 2 1 -2
v 2 1 -3
v 2 2 3
v 2 2 2
v 2 2 -2
v 2 2 -3
v 3 1 2
v 3 1 1
v 3 1 -1
v 3 1 -2
v 3 2 2
v 3 2 -2
v -3 1 2
v -3 1 1
v -3 1 -1
v -3 1 -2
v -3 2 2
v -3 2 -2
v -2 1 3
v -2 1 2
v -2 1 -2
v -2 1 -3
v -2 2 3
v -2 2 2
v -2 2 -2
v -2 2 -3
v 2 0 5
v 2 0 4
v 2 0 -4
v 2 0 -5
v 2 1 5
v 2 1 4
v 2 1 3
v 2 1 -3
v 2 1 -4
v 2 1 -5
v 2 2 4
v 2 2 3
v 2 2 -3
v 2 2 -4
v 3 1 3
v 3 1 2
v 3 1 -2
v 3 1 -3
v 3 2 3
v 3 2 2
v 3 2 -2
v 3 2 -3
v 4 0 4
v 4 0 3
v 4 0 2
v 4 0 -2
v 4 0 -3
v 4 0 -4
v 4 1 4
v 4 1 3
v 4 1 2
v 4 1 1
v 4 1 -0
v 4 1 -1
v 4 1 -2
v 4 1 -3
v 4 1 -4
v 4 2 2
v 4 2 -2
v 5 0 2
v 5 0 1
v 5 0 -0
v 5 0 -1
v 5 0 -2
v 5 1 2
v 5 1 1
v 5 1 -0
v 5 1 -1
v 5 1 -2
v -2 0 5
v -2 1 5
v -1 0 5
v -1 1 5
v 0 0 5
v 0 1 5
v 1 0 5
v 1 1 5
v 2 0 5
v 2 1 5
v -4 0 4
v -4 1 4
v -3 0 4
v -3 1 4
v -2 0 4
v -2 1 4
v -2 2 4
v -1 1 4
v 0 1 4
v 1 1 4
v 2 0 4
v 2 1 4
v 2 2 4
v 3 0 4
v 3 1 4
v 4 0 4
v 4 1 4
v -3 1 3
v -3 2 3
v -2 1 3
v -2 2 3
v 2 1 3
v 2 2 3
v 3 1 3
v 3 2 3
v -5 0 2
v -5 1 2
v -4 0 2
v -4 1 2
v -4 2 2
v -3 1 2
v -3 2 2
v 3 1 2
v 3 2 2
v 4 0 2
v 4 1 2
v 4 2 2
v 5 0 2
v 5 1 2
v -3 1 -2
v -3 2 -2
v -2 1 -2
v -2 2 -2
v 2 1 -2
v 2 2 -2
v 3 1 -2
v 3 2 -2
v -2 1 -3
v -2 2 -3
v -1 1 -3
v 1 1 -3
v 2 1 -3
v 2 2 -3
v -2 1 3
v -2 2 3
v -1 1 3
v 1 1 3
v 2 1 3
v 2 2 3
v -3 1 2
v -3 2 2
v -2 1 2
v -2 2 2
v 2 1 2
v 2 2 2
v 3 1 2
v 3 2 2
v -5 0 -2
v -5 1 -2
v -4 0 -2
v -4 1 -2
v -4 2 -2
v -3 1 -2
v -3 2 -2
v 3 1 -2
v 3 2 -2
v 4 0 -2
v 4 1 -2
v 4 2 -2
v 5 0 -2
v 5 1 -2
v -3 1 -3
v -3 2 -3
v -2 1 -3
v -2 2 -3
v 2 1 -3
v 2 2 -3
v 3 1 -3
v 3 2 -3
v -4 0 -4
v -4 1 -4
v -3 0 -4
v -3 1 -4
v -2 0 -4
v -2 1 -4
v -2 2 -4
v -1 1 -4
v 0 1 -4
v 1 1 -4
v 2 0 -4
v 2 1 -4
v 2 2 -4
v 3 0 -4
v 3 1 -4
v 4 0 -4
v 4 1 -4
v -2 0 -5
v -2 1 -5
v -1 0 -5
v -1 1 -5
v 0 0 -5
v 0 1 -5
v 1 0 -5
v 1 1 -5
v 2 0 -5
v 2 1 -5
v -2 0 5
v -1 0 5
v 0 0 5
v 1 0 5
v 2 0 5
v -4 0 4
v -3 0 4
v -2 0 4
v -1 0 4
v 0 0 4
v 1 0 4
v 2 0 4
v 3 0 4
v 4 0 4
v -4 0 3
v -3 0 3
v -2 0 3
v -1 0 3
v 1 0 3
v 2 0 3
v 3 0 3
v 4 0 3
v -5 0 2
v -4 0 2
v -3 0 2
v -2 0 2
v -1 0 2
v 1 0 2
v 2 0 2
v 3 0 2
v 4 0 2
v 5 0 2
v -5 0 1
v -4 0 1
v -3 0 1
v -2 0 1
v -1 0 1
v 1 0 1
v 2 0 1
v 3 0 1
v 4 0 1
v 5 0 1
v -5 0 -0
v -4 0 -0
v 4 0 -0
v 5 0 -0
v -5 0 -1
v -4 0 -1
v -3 0 -1
v -2 0 -1
v -1 0 -1
v 1 0 -1
v 2 0 -1
v 3 0 -1
v 4 0 -1
v 5 0 -1
v -5 0 -2
v -4 0 -2
v -3 0 -2
v -2 0 -2
v -1 0 -2
v 1 0 -2
v 2 0 -2
v 3 0 -2
v 4 0 -2
v 5 0 -2
v -4 0 -3
v -3 0 -3
v -2 0 -3
v -1 0 -3
v 1 0 -3
v 2 0 -3
v 3 0 -3
v 4 0 -3
v -4 0 -4
v -3 0 -4
v -2 0 -4
v -1 0 -4
v 0 0 -4
v 1 0 -4
v 2 0 -4
v 3 0 -4
v 4 0 -4
v -2 0 -5
v -1 0 -5
v 0 0 -5
v 1 0 -5
v 2 0 -5
v -2 1 5
v -1 1 5
v 0 1 5
v 1 1 5
v 2 1 5
v -4 1 4
v -3 1 4
v -2 1 4
v -1 1 4
v 0 1 4
v 1 1 4
v 2 1 4
v 3 1 4
v 4 1 4
v -4 1 3
v -3 1 3
v -2 1 3
v -1 1 3
v 1 1 3
v 2 1 3
v 3 1 3
v 4 1 3
v -5 1 2
v -4 1 2
v -3 1 2
v -2 1 2
v -1 1 2
v 1 1 2
v 2 1 2
v 3 1 2
v 4 1 2
v 5 1 2
v -5 1 1
v -4 1 1
v -3 1 1
v -2 1 1
v -1 1 1
v 1 1 1
v 2 1 1
v 3 1 1
v 4 1 1
v 5 1 1
v -5 1 -0
v -4 1 -0
v 4 1 -0
v 5 1 -0
v -5 1 -1
v -4 1 -1
v -3 1 -1
v -2 1 -1
v -1 1 -1
v 1 1 -1
v 2 1 -1
v 3 1 -1
v 4 1 -1
v 5 1 -1
v -5 1 -2
v -4 1 -2
v -3 1 -2
v -2 1 -2
v -1 1 -2
v 1 1 -2
v 2 1 -2
v 3 1 -2
v 4 1 -2
v 5 1 -2
v -4 1 -3
v -3 1 -3
v -2 1 -3
v -1 1 -3
v 1 1 -3
v 2 1 -3
v 3 1 -3
v 4 1 -3
v -4 1 -4
v -3 1 -4
v -2 1 -4
v -1 1 -4
v 0 1 -4
v 1 1 -4
v 2 1 -4
v 3 1 -4
v 4 1 -4
v -2 1 -5
v -1 1 -5
v 0 1 -5
v 1 1 -5
v 2 1 -5
v -2 2 4
v 2 2 4
v -3 2 3
v -2 2 3
v 2 2 3
v 3 2 3
v -4 2 2
v -3 2 2
v -2 2 2
v 2 2 2
v 3 2 2
v 4 2 2
v -4 2 -2
v -3 2 -2
v -2 2 -2
v 2 2 -2
v 3 2 -2
v 4 2 -2
v -3 2 -3
v -2 2 -3
v 2 2 -3
v 3 2 -3
v -2 2 -4
v 2 2 -4

# faces
f 6/1/1 2/1/1 1/1/1
f 7/4/1 3/4/1 2/4/1
f 7/1/1 2/1/1 6/1/1
f 8/1/1 4/1/1 3/1/1
f 8/4/1 3/4/1 7/4/1
f 9/4/1 5/4/1 4/4/1
f 9/1/1 4/1/1 8/1/1
f 10/4/1 5/4/1 9/4/1
f 17/1/1 12/1/1 11/1/1
f 18/4/1 13/4/1 12/4/1
f 18/1/1 12/1/1 17/1/1
f 19/4/1 13/4/1 18/4/1
f 23/1/1 15/1/1 14/1/1
f 24/4/1 16/4/1 15/4/1
f 24/1/1 15/1/1 23/1/1
f 25/4/1 16/4/1 24/4/1
f 26/5/1 23/5/1 22/5/1
f 26/5/1 22/5/1 21/5/1
f 26/5/1 21/5/1 20/5/1
f 26/5/1 20/5/1 19/5/1
f 27/5/1 23/5/1 26/5/1
f 32/5/1 29/5/1 28/5/1
f 33/5/1 29/5/1 32/5/1
f 34/5/1 31/5/1 30/5/1
f 35/5/1 31/5/1 34/5/1
f 40/1/1 37/1/1 36/1/1
f 41/1/1 37/1/1 40/1/1
f 44/4/1 39/4/1 38/4/1
f 45/4/1 39/4/1 44/4/1
f 46/5/1 42/5/1 41/5/1
f 47/5/1 42/5/1 46/5/1
f 48/5/1 44/5/1 43/5/1
f 49/5/1 44/5/1 48/5/1
f 54/5/1 51/5/1 50/5/1
f 55/5/1 51/5/1 54/5/1
f 56/5/1 53/5/1 52/5/1
f 57/5/1 53/5/1 56/5/1
f 62/5/1 59/5/1 58/5/1
f 62/5/1 61/5/1 60/5/1
f 62/5/1 60/5/1 59/5/1
f 63/5/1 61/5/1 62/5/1
f 64/5/2 65/5/2 68/5/2
f 66/5/2 67/5/2 68/5/2
f 65/5/2 66/5/2 68/5/2
f 68/5/2 67/5/2 69/5/2
f 70/5/2 71/5/2 74/5/2
f 74/5/2 71/5/2 75/5/2
f 72/5/2 73/5/2 76/5/2
f 76/5/2 73/5/2 77/5/2
f 78/4/2 79/4/2 82/4/2
f 82/4/2 79/4/2 83/4/2
f 80/1/2 81/1/2 86/1/2
f 86/1/2 81/1/2 87/1/2
f 83/5/2 84/5/2 88/5/2
f 88/5/2 84/5/2 89/5/2
f 85/5/2 86/5/2 90/5/2
f 90/5/2 86/5/2 91/5/2
f 92/5/2 93/5/2 96/5/2
f 96/5/2 93/5/2 97/5/2
f 94/5/2 95/5/2 98/5/2
f 98/5/2 95/5/2 99/5/2
f 100/4/2 101/4/2 106/4/2
f 101/1/2 102/1/2 107/1/2
f 106/4/2 101/4/2 107/4/2
f 107/1/2 102/1/2 108/1/2
f 103/4/2 104/4/2 112/4/2
f 104/1/2 105/1/2 113/1/2
f 112/4/2 104/4/2 113/4/2
f 113/1/2 105/1/2 114/1/2
f 111/5/2 112/5/2 115/5/2
f 110/5/2 111/5/2 115/5/2
f 109/5/2 110/5/2 115/5/2
f 108/5/2 109/5/2 115/5/2
f 115/5/2 112/5/2 116/5/2
f 117/1/2 118/1/2 122/1/2
f 118/4/2 119/4/2 123/4/2
f 122/1/2 118/1/2 123/1/2
f 119/1/2 120/1/2 124/1/2
f 123/4/2 119/4/2 124/4/2
f 120/4/2 121/4/2 125/4/2
f 124/1/2 120/1/2 125/1/2
f 125/4/2 121/4/2 126/4/2
f 129/1/3 128/1/3 127/1/3
f 130/1/3 128/1/3 129/1/3
f 131/4/3 130/4/3 129/4/3
f 132/4/3 130/4/3 131/4/3
f 133/1/3 132/1/3 131/1/3
f 134/1/3 132/1/3 133/1/3
f 135/4/3 134/4/3 133/4/3
f 136/4/3 134/4/3 135/4/3
f 139/1/3 138/1/3 137/1/3
f 140/1/3 138/1/3 139/1/3
f 141/4/3 140/4/3 139/4/3
f 142/4/3 140/4/3 141/4/3
f 144/5/3 143/5/3 142/5/3
f 145/5/3 143/5/3 144/5/3
f 146/5/3 143/5/3 145/5/3
f 148/5/3 143/5/3 146/5/3
f 149/5/3 143/5/3 148/5/3
f 150/1/3 148/1/3 147/1/3
f 151/1/3 148/1/3 150/1/3
f 152/4/3 151/4/3 150/4/3
f 153/4/3 151/4/3 152/4/3
f 156/5/3 155/5/3 154/5/3
f 157/5/3 155/5/3 156/5/3
f 160/5/3 159/5/3 158/5/3
f 161/5/3 159/5/3 160/5/3
f 164/1/3 163/1/3 162/1/3
f 165/1/3 163/1/3 164/1/3
f 167/5/3 166/5/3 165/5/3
f 168/5/3 166/5/3 167/5/3
f 172/5/3 170/5/3 169/5/3
f 173/5/3 170/5/3 172/5/3
f 174/1/3 172/1/3 171/1/3
f 175/1/3 172/1/3 174/1/3
f 178/5/3 177/5/3 176/5/3
f 179/5/3 177/5/3 178/5/3
f 182/5/3 181/5/3 180/5/3
f 183/5/3 181/5/3 182/5/3
f 186/5/3 185/5/3 184/5/3
f 187/5/3 185/5/3 186/5/3
f 188/5/3 185/5/3 187/5/3
f 189/5/3 185/5/3 188/5/3
f 190/5/4 191/5/4 192/5/4
f 192/5/4 191/5/4 193/5/4
f 193/5/4 191/5/4 194/5/4
f 194/5/4 191/5/4 195/5/4
f 196/5/4 197/5/4 198/5/4
f 198/5/4 197/5/4 199/5/4
f 200/5/4 201/5/4 202/5/4
f 202/5/4 201/5/4 203/5/4
f 204/4/4 205/4/4 206/4/4
f 206/4/4 205/4/4 207/4/4
f 207/5/4 208/5/4 209/5/4
f 209/5/4 208/5/4 210/5/4
f 211/5/4 212/5/4 214/5/4
f 214/5/4 212/5/4 215/5/4
f 213/4/4 214/4/4 216/4/4
f 216/4/4 214/4/4 217/4/4
f 218/5/4 219/5/4 220/5/4
f 220/5/4 219/5/4 221/5/4
f 222/5/4 223/5/4 224/5/4
f 224/5/4 223/5/4 225/5/4
f 226/4/4 227/4/4 228/4/4
f 228/4/4 227/4/4 229/4/4
f 228/1/4 229/1/4 230/1/4
f 230/1/4 229/1/4 231/1/4
f 231/5/4 232/5/4 233/5/4
f 233/5/4 232/5/4 234/5/4
f 234/5/4 232/5/4 235/5/4
f 235/5/4 232/5/4 237/5/4
f 237/5/4 232/5/4 238/5/4
f 236/4/4 237/4/4 239/4/4
f 239/4/4 237/4/4 240/4/4
f 239/1/4 240/1/4 241/1/4
f 241/1/4 240/1/4 242/1/4
f 243/4/4 244/4/4 245/4/4
f 245/4/4 244/4/4 246/4/4
f 245/1/4 246/1/4 247/1/4
f 247/1/4 246/1/4 248/1/4
f 247/4/4 248/4/4 249/4/4
f 249/4/4 248/4/4 250/4/4
f 249/1/4 250/1/4 251/1/4
f 251/1/4 250/1/4 252/1/4
f 260/1/5 254/1/5 253/1/5
f 261/4/5 255/4/5 254/4/5
f 261/1/5 254/1/5 260/1/5
f 262/1/5 256/1/5 255/1/5
f 262/4/5 255/4/5 261/4/5
f 263/4/5 257/4/5 256/4/5
f 263/1/5 256/1/5 262/1/5
f 264/4/5 257/4/5 263/4/5
f 267/1/5 259/1/5 258/1/5
f 268/4/5 260/4/5 259/4/5
f 268/1/5 259/1/5 267/1/5
f 268/4/5 261/4/5 260/4/5
f 268/4/5 262/4/5 261/4/5
f 268/4/5 264/4/5 263/4/5
f 268/4/5 263/4/5 262/4/5
f 269/4/5 264/4/5 268/4/5
f 270/4/5 264/4/5 269/4/5
f 271/4/5 264/4/5 270/4/5
f 272/1/5 265/1/5 264/1/5
f 272/4/5 264/4/5 271/4/5
f 273/4/5 266/4/5 265/4/5
f 273/1/5 265/1/5 272/1/5
f 274/4/5 266/4/5 273/4/5
f 276/4/5 268/4/5 267/4/5
f 276/4/5 269/4/5 268/4/5
f 277/4/5 269/4/5 276/4/5
f 278/6/5 270/6/5 269/6/5
f 278/4/5 269/4/5 277/4/5
f 279/3/5 271/3/5 270/3/5
f 279/6/5 270/6/5 278/6/5
f 280/6/5 272/6/5 271/6/5
f 280/3/5 271/3/5 279/3/5
f 281/4/5 273/4/5 272/4/5
f 281/6/5 272/6/5 280/6/5
f 282/1/5 274/1/5 273/1/5
f 282/4/5 273/4/5 281/4/5
f 283/1/5 274/1/5 282/1/5
f 285/1/5 276/1/5 275/1/5
f 286/4/5 277/4/5 276/4/5
f 286/1/5 276/1/5 285/1/5
f 287/6/5 278/6/5 277/6/5
f 287/4/5 277/4/5 286/4/5
f 288/3/5 279/3/5 278/3/5
f 288/6/5 278/6/5 287/6/5
f 288/3/5 281/3/5 280/3/5
f 288/3/5 280/3/5 279/3/5
f 289/3/5 281/3/5 288/3/5
f 290/3/5 281/3/5 289/3/5
f 291/6/5 282/6/5 281/6/5
f 291/3/5 281/3/5 290/3/5
f 292/4/5 283/4/5 282/4/5
f 292/6/5 282/6/5 291/6/5
f 293/1/5 284/1/5 283/1/5
f 293/4/5 283/4/5 292/4/5
f 294/1/5 284/1/5 293/1/5
f 295/4/5 287/4/5 286/4/5
f 295/4/5 286/4/5 285/4/5
f 296/4/5 287/4/5 295/4/5
f 297/4/5 294/4/5 293/4/5
f 297/4/5 293/4/5 292/4/5
f 298/4/5 294/4/5 297/4/5
f 299/1/5 296/1/5 295/1/5
f 300/4/5 287/4/5 296/4/5
f 300/1/5 296/1/5 299/1/5
f 301/3/5 288/3/5 287/3/5
f 301/4/5 287/4/5 300/4/5
f 301/3/5 289/3/5 288/3/5
f 302/3/5 289/3/5 301/3/5
f 303/2/5 290/2/5 289/2/5
f 303/3/5 289/3/5 302/3/5
f 304/3/5 291/3/5 290/3/5
f 304/2/5 290/2/5 303/2/5
f 304/3/5 292/3/5 291/3/5
f 305/3/5 292/3/5 304/3/5
f 306/4/5 297/4/5 292/4/5
f 306/3/5 292/3/5 305/3/5
f 307/1/5 298/1/5 297/1/5
f 307/4/5 297/4/5 306/4/5
f 308/1/5 298/1/5 307/1/5
f 309/4/5 301/4/5 300/4/5
f 309/4/5 300/4/5 299/4/5
f 310/4/5 301/4/5 309/4/5
f 311/6/5 302/6/5 301/6/5
f 311/4/5 301/4/5 310/4/5
f 312/3/5 303/3/5 302/3/5
f 312/6/5 302/6/5 311/6/5
f 312/3/5 305/3/5 304/3/5
f 312/3/5 304/3/5 303/3/5
f 313/3/5 305/3/5 312/3/5
f 314/3/5 305/3/5 313/3/5
f 315/6/5 306/6/5 305/6/5
f 315/3/5 305/3/5 314/3/5
f 316/4/5 308/4/5 307/4/5
f 316/6/5 306/6/5 315/6/5
f 316/4/5 307/4/5 306/4/5
f 317/4/5 308/4/5 316/4/5
f 318/4/5 308/4/5 317/4/5
f 319/1/5 311/1/5 310/1/5
f 320/4/5 312/4/5 311/4/5
f 320/1/5 311/1/5 319/1/5
f 321/6/5 313/6/5 312/6/5
f 321/4/5 312/4/5 320/4/5
f 322/3/5 314/3/5 313/3/5
f 322/6/5 313/6/5 321/6/5
f 323/6/5 315/6/5 314/6/5
f 323/3/5 314/3/5 322/3/5
f 324/4/5 317/4/5 316/4/5
f 324/6/5 315/6/5 323/6/5
f 324/4/5 316/4/5 315/4/5
f 325/4/5 317/4/5 324/4/5
f 326/4/5 317/4/5 325/4/5
f 327/4/5 320/4/5 319/4/5
f 328/1/5 321/1/5 320/1/5
f 328/4/5 320/4/5 327/4/5
f 329/4/5 323/4/5 322/4/5
f 329/1/5 321/1/5 328/1/5
f 329/4/5 322/4/5 321/4/5
f 329/4/5 324/4/5 323/4/5
f 329/4/5 325/4/5 324/4/5
f 330/4/5 325/4/5 329/4/5
f 331/4/5 325/4/5 330/4/5
f 332/4/5 325/4/5 331/4/5
f 333/4/5 325/4/5 332/4/5
f 334/1/5 326/1/5 325/1/5
f 334/4/5 325/4/5 333/4/5
f 335/1/5 326/1/5 334/1/5
f 336/4/5 330/4/5 329/4/5
f 337/1/5 331/1/5 330/1/5
f 337/4/5 330/4/5 336/4/5
f 338/4/5 332/4/5 331/4/5
f 338/1/5 331/1/5 337/1/5
f 339/1/5 333/1/5 332/1/5
f 339/4/5 332/4/5 338/4/5
f 340/1/5 333/1/5 339/1/5
f 341/1/6 342/1/6 348/1/6
f 342/4/6 343/4/6 349/4/6
f 348/1/6 342/1/6 349/1/6
f 343/1/6 344/1/6 350/1/6
f 349/4/6 343/4/6 350/4/6
f 344/4/6 345/4/6 351/4/6
f 350/1/6 344/1/6 351/1/6
f 351/4/6 345/4/6 352/4/6
f 346/1/6 347/1/6 355/1/6
f 347/4/6 348/4/6 356/4/6
f 355/1/6 347/1/6 356/1/6
f 356/4/6 348/4/6 357/4/6
f 352/1/6 353/1/6 360/1/6
f 353/4/6 354/4/6 361/4/6
f 360/1/6 353/1/6 361/1/6
f 361/4/6 354/4/6 362/4/6
f 355/4/6 356/4/6 364/4/6
f 364/4/6 356/4/6 365/4/6
f 357/6/6 358/6/6 366/6/6
f 358/3/6 359/3/6 367/3/6
f 366/6/6 358/6/6 367/6/6
f 359/6/6 360/6/6 368/6/6
f 367/3/6 359/3/6 368/3/6
f 368/6/6 360/6/6 369/6/6
f 361/1/6 362/1/6 370/1/6
f 370/1/6 362/1/6 371/1/6
f 363/1/6 364/1/6 373/1/6
f 373/1/6 364/1/6 374/1/6
f 365/6/6 366/6/6 375/6/6
f 366/3/6 367/3/6 376/3/6
f 375/6/6 366/6/6 376/6/6
f 368/3/6 369/3/6 376/3/6
f 367/3/6 368/3/6 376/3/6
f 376/3/6 369/3/6 377/3/6
f 377/3/6 369/3/6 378/3/6
f 369/6/6 370/6/6 379/6/6
f 378/3/6 369/3/6 379/3/6
f 379/6/6 370/6/6 380/6/6
f 371/1/6 372/1/6 381/1/6
f 381/1/6 372/1/6 382/1/6
f 373/4/6 374/4/6 383/4/6
f 383/4/6 374/4/6 384/4/6
f 381/4/6 382/4/6 385/4/6
f 385/4/6 382/4/6 386/4/6
f 383/1/6 384/1/6 387/1/6
f 387/1/6 384/1/6 388/1/6
f 375/3/6 376/3/6 389/3/6
f 376/3/6 377/3/6 389/3/6
f 389/3/6 377/3/6 390/3/6
f 377/2/6 378/2/6 391/2/6
f 390/3/6 377/3/6 391/3/6
f 379/3/6 380/3/6 392/3/6
f 391/2/6 378/2/6 392/2/6
f 378/3/6 379/3/6 392/3/6
f 392/3/6 380/3/6 393/3/6
f 393/3/6 380/3/6 394/3/6
f 385/1/6 386/1/6 395/1/6
f 395/1/6 386/1/6 396/1/6
f 387/4/6 388/4/6 397/4/6
f 397/4/6 388/4/6 398/4/6
f 389/6/6 390/6/6 399/6/6
f 390/3/6 391/3/6 400/3/6
f 391/3/6 392/3/6 400/3/6
f 399/6/6 390/6/6 400/6/6
f 392/3/6 393/3/6 400/3/6
f 400/3/6 393/3/6 401/3/6
f 401/3/6 393/3/6 402/3/6
f 393/6/6 394/6/6 403/6/6
f 402/3/6 393/3/6 403/3/6
f 403/6/6 394/6/6 404/6/6
f 395/4/6 396/4/6 405/4/6
f 405/4/6 396/4/6 406/4/6
f 398/1/6 399/1/6 407/1/6
f 407/1/6 399/1/6 408/1/6
f 400/6/6 401/6/6 409/6/6
f 401/3/6 402/3/6 410/3/6
f 409/6/6 401/6/6 410/6/6
f 402/6/6 403/6/6 411/6/6
f 410/3/6 402/3/6 411/3/6
f 411/6/6 403/6/6 412/6/6
f 404/4/6 405/4/6 413/4/6
f 413/4/6 405/4/6 414/4/6
f 407/4/6 408/4/6 415/4/6
f 408/1/6 409/1/6 416/1/6
f 415/4/6 408/4/6 416/4/6
f 416/1/6 409/1/6 417/1/6
f 412/4/6 413/4/6 421/4/6
f 413/1/6 414/1/6 422/1/6
f 421/4/6 413/4/6 422/4/6
f 422/1/6 414/1/6 423/1/6
f 417/4/6 418/4/6 424/4/6
f 418/1/6 419/1/6 425/1/6
f 424/4/6 418/4/6 425/4/6
f 419/4/6 420/4/6 426/4/6
f 425/1/6 419/1/6 426/1/6
f 420/1/6 421/1/6 427/1/6
f 426/4/6 420/4/6 427/4/6
f 427/1/6 421/1/6 428/1/6
f 429/5/6 430/5/6 432/5/6
f 432/5/6 430/5/6 433/5/6
f 431/5/6 432/5/6 436/5/6
f 436/5/6 432/5/6 437/5/6
f 433/5/6 434/5/6 438/5/6
f 438/5/6 434/5/6 439/5/6
f 435/5/6 436/5/6 441/5/6
f 441/5/6 436/5/6 442/5/6
f 439/5/6 440/5/6 445/5/6
f 445/5/6 440/5/6 446/5/6
f 442/5/6 443/5/6 447/5/6
f 447/5/6 443/5/6 448/5/6
f 444/5/6 445/5/6 449/5/6
f 449/5/6 445/5/6 450/5/6
f 448/5/6 449/5/6 451/5/6
f 451/5/6 449/5/6 452/5/6
